<svg width="28" height="28" viewBox="0 0 28 28" fill="none" xmlns="http://www.w3.org/2000/svg">
<rect width="28" height="28" rx="10" fill="white" fill-opacity="0.25"/>
<path d="M22.6233 9.67161C22.4163 8.89562 21.8064 8.28447 21.032 8.07707C19.6283 7.7002 13.9997 7.7002 13.9997 7.7002C13.9997 7.7002 8.37117 7.7002 6.96746 8.07707C6.19304 8.2845 5.58312 8.89562 5.37612 9.67161C5 11.0781 5 14.0127 5 14.0127C5 14.0127 5 16.9473 5.37612 18.3539C5.58312 19.1298 6.19304 19.7155 6.96746 19.9229C8.37117 20.2998 13.9997 20.2998 13.9997 20.2998C13.9997 20.2998 19.6283 20.2998 21.032 19.9229C21.8064 19.7155 22.4163 19.1298 22.6233 18.3539C22.9994 16.9473 22.9994 14.0127 22.9994 14.0127C22.9994 14.0127 22.9994 11.0781 22.6233 9.67161ZM12.1589 16.6771V11.3483L16.8632 14.0128L12.1589 16.6771Z" fill="white"/>
</svg>
