<svg width="73" height="56" viewBox="0 0 73 56" fill="none" xmlns="http://www.w3.org/2000/svg">
<g clip-path="url(#clip0_2867_11256)">
<path d="M14.684 49.2705H15.7842L17.6545 52.3694L19.5065 49.2705H20.6067L20.9001 55.835H19.7633L19.5432 51.2875L17.9113 53.9646H17.3428L15.6925 51.3425L15.4908 55.835H14.3906L14.684 49.2705Z" fill="black"/>
<path d="M27.0601 53.1395L26.235 50.5907L25.3915 53.1395H27.0601ZM25.6482 49.2705H26.8584L29.2238 55.835H27.9036L27.3535 54.1663H25.0247L24.4746 55.835H23.2461L25.6482 49.2705Z" fill="black"/>
<path d="M34.1013 52.2227C34.3947 52.2227 34.6331 52.131 34.7981 51.9476C34.9631 51.7643 35.0548 51.5442 35.0548 51.2692C35.0548 50.9941 34.9631 50.7557 34.7981 50.5724C34.6147 50.389 34.3947 50.3157 34.1197 50.3157H32.8728V52.2227H34.1013ZM31.7176 49.2705H34.083C34.468 49.2705 34.8164 49.3255 35.0915 49.4538C35.3665 49.5822 35.5866 49.7289 35.7516 49.9306C35.9166 50.1323 36.045 50.334 36.1183 50.5724C36.1917 50.8107 36.2284 51.0308 36.2284 51.2325C36.2284 51.6359 36.1367 52.021 35.9716 52.3327C35.8066 52.6444 35.5316 52.9011 35.1832 53.1028L36.6318 55.8533H35.2932L34.028 53.2679H32.8361V55.8533H31.6992V49.2705H31.7176Z" fill="black"/>
<path d="M41.674 52.2227C41.9674 52.2227 42.2058 52.131 42.3708 51.9476C42.5358 51.7643 42.6275 51.5442 42.6275 51.2692C42.6275 50.9941 42.5358 50.7557 42.3708 50.5724C42.1874 50.389 41.9674 50.3157 41.6924 50.3157H40.4455V52.2227H41.674ZM39.3086 49.2705H41.674C42.0591 49.2705 42.4075 49.3255 42.6825 49.4538C42.9576 49.5822 43.1776 49.7289 43.3426 49.9306C43.5077 50.1323 43.636 50.334 43.7094 50.5724C43.7827 50.8107 43.8194 51.0308 43.8194 51.2325C43.8194 51.6359 43.7277 52.021 43.5627 52.3327C43.3977 52.6444 43.1226 52.9011 42.7742 53.1028L44.2228 55.8533H42.8842L41.619 53.2679H40.4455V55.8533H39.3086V49.2705Z" fill="black"/>
<path d="M48.3493 49.2705H47.1758V55.835H48.3493V49.2705Z" fill="black"/>
<path d="M54.4553 54.8448C54.767 54.8448 55.0421 54.7898 55.2988 54.6614C55.5555 54.5331 55.7572 54.368 55.9406 54.148C56.124 53.928 56.2523 53.6896 56.344 53.3962C56.4357 53.1211 56.4907 52.8278 56.4907 52.516C56.4907 52.2043 56.4357 51.9109 56.344 51.6175C56.2523 51.3425 56.124 51.0858 55.9406 50.8841C55.7572 50.664 55.5555 50.499 55.2988 50.389C55.0421 50.2606 54.767 50.2056 54.4553 50.2056C54.1436 50.2056 53.8686 50.2606 53.6118 50.389C53.3735 50.5173 53.1534 50.6824 52.9884 50.8841C52.805 51.0858 52.6767 51.3425 52.585 51.6175C52.4933 51.8926 52.4383 52.186 52.4383 52.516C52.4383 52.8278 52.4933 53.1211 52.585 53.3962C52.6767 53.6712 52.805 53.928 52.9884 54.148C53.1718 54.368 53.3735 54.5331 53.6118 54.6614C53.8686 54.7714 54.1436 54.8448 54.4553 54.8448ZM54.4553 56C53.9969 56 53.5752 55.9083 53.1718 55.7249C52.7867 55.5416 52.4383 55.3032 52.1449 54.9915C51.8515 54.6798 51.6131 54.313 51.4481 53.8913C51.2831 53.4695 51.1914 53.0295 51.1914 52.5344C51.1914 52.0576 51.2831 51.5992 51.4481 51.1775C51.6131 50.7557 51.8515 50.389 52.1449 50.0773C52.4383 49.7655 52.7684 49.5272 53.1718 49.3438C53.5752 49.1604 53.9969 49.0688 54.4553 49.0688C54.9137 49.0688 55.3355 49.1604 55.7389 49.3438C56.124 49.5272 56.4723 49.7655 56.7657 50.0773C57.0591 50.389 57.2975 50.7557 57.4625 51.1775C57.6276 51.5992 57.7192 52.0393 57.7192 52.5344C57.7192 53.0111 57.6276 53.4695 57.4625 53.8913C57.2975 54.313 57.0591 54.6798 56.7657 54.9915C56.4723 55.3032 56.124 55.5599 55.7389 55.7249C55.3355 55.9083 54.9137 56 54.4553 56Z" fill="black"/>
<path d="M61.3704 50.3523H59.2617V49.2705H64.671V50.3523H62.5623V55.835H61.3704V50.3523Z" fill="black"/>
<path d="M68.795 50.3523H66.668V49.2705H72.0956V50.3523H69.9686V55.835H68.795V50.3523Z" fill="black"/>
<path d="M46.3333 42.706H56.8768L39.237 0.678454L30.3804 4.96922L36.5415 19.6018L33.681 26.4047L22.6424 0L13.6941 4.08906L20.8821 20.9587L20.8454 21.0321C16.4079 31.6857 10.9803 34.6012 10.4486 34.8029C9.18332 35.3163 7.82641 35.6097 6.39616 35.6097C5.95608 35.6097 5.53434 35.5914 5.1126 35.5363L0.785156 44.8147C2.21541 45.6398 3.82903 46.1166 5.53434 46.1166C7.69806 46.1166 9.67841 45.3648 11.3287 44.1179L11.3104 44.1546C11.3104 44.1546 15.3994 42.0825 19.7819 30.7322C19.7819 30.7138 21.3955 27.1015 22.2573 24.7911L22.349 24.5344L30.0504 42.7243H40.5756L35.148 29.9253L38.0268 23.1225L46.3333 42.706Z" fill="#A11D2B"/>
</g>
<defs>
<clipPath id="clip0_2867_11256">
<rect width="71.3111" height="56" fill="white" transform="translate(0.785156)"/>
</clipPath>
</defs>
</svg>
