<svg width="180" height="56" viewBox="0 0 180 56" fill="none" xmlns="http://www.w3.org/2000/svg">
<mask id="mask0_2124_38066" style="mask-type:luminance" maskUnits="userSpaceOnUse" x="0" y="10" width="34" height="34">
<path d="M3.40764 31.4113C2.34618 31.0309 1.27945 30.7561 0.222274 30.5748C0.542023 32.2871 1.13261 33.9784 2.0214 35.5864C4.61744 40.2832 9.1452 43.2324 14.0666 44C13.8875 38.8548 9.71797 33.6736 3.40764 31.4113ZM4.00863 26.1934C12.3388 25.4668 18.7504 18.9759 19.5232 11.0837C15.8941 10.4412 12.0301 10.9881 8.5533 12.9098C3.50128 15.7022 0.467093 20.7289 0 26.0773C1.29968 26.2655 2.64163 26.3125 4.00863 26.1934ZM16.6427 31.3649C16.4296 35.9981 17.8915 40.3195 20.4916 43.7465C21.9278 43.4037 23.3425 42.8677 24.6978 42.1187C32.7634 37.6606 35.6877 27.5079 31.2296 19.4421C30.2692 17.7045 29.0434 16.2072 27.6324 14.9692C21.4159 17.8706 16.9796 24.0368 16.6427 31.3649Z" fill="white"/>
</mask>
<g mask="url(#mask0_2124_38066)">
<path d="M3.40764 31.4113C2.34618 31.0309 1.27945 30.7561 0.222274 30.5748C0.542023 32.2871 1.13261 33.9784 2.0214 35.5864C4.61744 40.2832 9.1452 43.2324 14.0666 44C13.8875 38.8548 9.71797 33.6736 3.40764 31.4113ZM4.00863 26.1934C12.3388 25.4668 18.7504 18.9759 19.5232 11.0837C15.8941 10.4412 12.0301 10.9881 8.5533 12.9098C3.50128 15.7022 0.467093 20.7289 0 26.0773C1.29968 26.2655 2.64163 26.3125 4.00863 26.1934ZM16.6427 31.3649C16.4296 35.9981 17.8915 40.3195 20.4916 43.7465C21.9278 43.4037 23.3425 42.8677 24.6978 42.1187C32.7634 37.6606 35.6877 27.5079 31.2296 19.4421C30.2692 17.7045 29.0434 16.2072 27.6324 14.9692C21.4159 17.8706 16.9796 24.0368 16.6427 31.3649Z" fill="url(#paint0_linear_2124_38066)"/>
</g>
<path d="M88.3661 41.0503H93.1771V13.2494H88.3661V41.0503Z" fill="#110F0D"/>
<path d="M107.695 20.8672C105.3 20.8672 103.009 21.771 101.53 24.1828V21.2897H97.1986V41.0505H101.831V30.5836C101.831 29.7648 101.903 28.9813 102.048 28.4077C102.581 26.2763 104.099 25.0384 106.335 25.0384C108.644 25.0384 109.975 26.1946 110.403 28.5059C110.506 29.0586 110.556 29.8464 110.556 30.5797V41.0505H115.189V29.3572C115.189 28.045 115.058 26.8591 114.752 25.8468C113.747 22.4886 111.062 20.8672 107.695 20.8672Z" fill="#110F0D"/>
<path d="M130.664 36.5241C130.161 36.6426 129.323 36.6867 128.781 36.6867H123.455V28.8481H129.183C129.697 28.8481 130.285 28.8996 130.7 28.9926C132.952 29.4922 133.815 31.2689 133.815 32.7618C133.815 34.7366 132.546 36.081 130.664 36.5241ZM123.455 17.6135H127.727C128.701 17.6135 129.736 17.7479 130.401 18.0545C131.56 18.5884 132.185 19.5867 132.185 21.087C132.185 22.5945 131.519 23.6249 130.338 24.1558C129.746 24.4213 128.883 24.5617 127.885 24.5617H126.972H123.455V17.6135ZM134.273 26.1918C136.154 24.7476 136.945 23.0909 136.945 20.7242C136.945 17.1823 134.75 14.5261 131.404 13.6213C130.536 13.3874 129.126 13.25 127.483 13.25H118.696V41.0503H128.538C130.456 41.0503 131.742 40.8676 133.002 40.4233C136.3 39.2591 138.575 36.6983 138.575 32.9409C138.575 29.8036 137.083 27.5694 134.273 26.1918Z" fill="#110F0D"/>
<path d="M175.031 21.2894L170.083 35.4063L165.063 21.2894H160.044L167.892 41.0503H172.167L180 21.2894H175.031Z" fill="#110F0D"/>
<path d="M144.887 29.6157C145.22 26.7719 147.526 24.9024 150.328 24.9024C153.271 24.9024 155.509 26.8508 155.839 29.6157H144.887ZM150.285 20.8674C144.661 20.8674 140.29 25.3938 140.29 31.3086C140.29 36.7682 144.594 41.4727 150.482 41.4727C154.784 41.4727 158.115 38.9978 159.817 34.9888H155.106C154.044 36.576 152.622 37.4375 150.561 37.4375C147.491 37.4375 145.482 35.6316 144.873 32.8529H160.295C160.411 32.1956 160.443 31.6443 160.435 30.9762C160.385 25.665 156.313 20.8674 150.285 20.8674Z" fill="#110F0D"/>
<path d="M76.1591 36.6833H70.4334V28.6923C71.1592 28.6618 71.8714 28.6454 72.5597 28.6537C77.7664 28.7211 80.7958 30.2366 80.7959 32.9335C80.7959 35.3607 78.6257 36.6833 76.1591 36.6833ZM70.4334 17.6135H74.5167C75.4495 17.6135 76.2313 17.7196 76.767 17.8943C78.3182 18.4 79.164 19.5683 79.164 21.4523C79.164 23.1965 78.286 24.3428 76.8923 24.87C75.5658 24.6445 74.0827 24.5208 72.428 24.5194C71.8075 24.5189 71.1248 24.5287 70.4334 24.5505V17.6135ZM44.6573 34.736L50.8339 18.7478L54.4271 28.3336C50.7097 30.0383 47.3957 32.2259 44.6573 34.736ZM81.2107 26.2307C83.2146 24.7648 83.9236 22.5726 83.9236 20.7242C83.9236 17.1823 81.7283 14.5261 78.3835 13.6211C77.5151 13.3874 76.1047 13.25 74.4618 13.25H65.6741V24.9805C63.221 25.352 60.8482 25.9323 58.583 26.6897L53.0978 13.2491H52.9581H48.7726H48.6832L37.3373 41.0503H41.9666C45.9669 36.8208 50.7427 33.7858 55.7163 31.7724L59.1942 41.0503H64.4437L60.0498 30.2837C61.9306 29.7482 63.8142 29.35 65.6741 29.0789V41.0503L68.0629 41.0525L68.0621 41.0571H76.4514C82.3795 41.0571 85.5597 37.5793 85.5597 32.9425C85.5597 30.1304 84.1671 27.7402 81.2107 26.2307Z" fill="#110F0D"/>
<defs>
<linearGradient id="paint0_linear_2124_38066" x1="0" y1="27.4135" x2="33.3151" y2="27.4135" gradientUnits="userSpaceOnUse">
<stop stop-color="#CD9F28"/>
<stop offset="1" stop-color="#ECD80B"/>
</linearGradient>
</defs>
</svg>
