<svg width="240" height="56" viewBox="0 0 240 56" fill="none" xmlns="http://www.w3.org/2000/svg">
<mask id="mask0_5267_83210" style="mask-type:luminance" maskUnits="userSpaceOnUse" x="0" y="9" width="40" height="41">
<path d="M0 9H39.8058V49.0839H0V9Z" fill="white"/>
</mask>
<g mask="url(#mask0_5267_83210)">
<path fill-rule="evenodd" clip-rule="evenodd" d="M5.82906 43.2133C5.85244 43.2361 5.87523 43.2593 5.89871 43.2827L8.43306 38.4169L18.5595 18.9806H13.2978L6.35861 32.2996L5.37911 34.1814L4.96189 32.0987C4.76229 31.101 4.6605 30.0727 4.6599 29.0419C4.6613 24.9467 6.24727 21.0917 9.12529 18.1881C10.5128 16.7924 12.1231 15.6948 13.9098 14.9239C15.8032 14.1072 17.8197 13.6931 19.904 13.6921C20.3641 13.6931 20.8266 13.7139 21.2829 13.7543L23.5807 9.34378C22.3698 9.11563 21.1364 9 19.9032 9C19.3012 9 18.6836 9.02946 18.067 9.08597C13.4518 9.51221 9.10699 11.566 5.82906 14.8703C2.06985 18.6522 -0.000794945 23.6846 5.37133e-07 29.0419C-0.000794945 32.479 0.881992 35.8749 2.55234 38.8649C3.44478 40.4617 4.54796 41.9246 5.82906 43.2133ZM12.7821 47.7603C11.3277 47.1993 9.9438 46.4674 8.6567 45.5785L11.2605 40.5817L24.4225 15.3184L25.7283 12.8135L27.4186 9.56647H32.6811L31.4533 11.9223L28.5464 17.5027L15.3846 42.7661L12.7821 47.7603ZM19.9093 49.0839H19.9033C18.6707 49.0845 17.438 48.9691 16.2263 48.7407L18.7616 43.8763L26.2501 29.5015H31.5118L24.9391 42.1182L23.9601 43.9974L25.8973 43.1611C27.6848 42.3897 29.2943 41.2913 30.6817 39.8966C33.5608 36.9927 35.1457 33.1379 35.1466 29.042C35.1466 28.0127 35.0452 26.9839 34.8451 25.986C34.3475 23.503 33.2334 21.1717 31.6104 19.2134L33.9093 14.8022C33.9316 14.8249 33.9548 14.8479 33.9772 14.8703C35.258 16.159 36.3606 17.6221 37.2539 19.2196C38.9251 22.2096 39.8077 25.6056 39.806 29.042C39.8077 34.3986 37.7371 39.4313 33.9779 43.2143C30.6995 46.5186 26.3543 48.5724 21.7401 48.9983C21.1235 49.0552 20.5077 49.0839 19.9093 49.0839Z" fill="#16A500"/>
</g>
<path d="M51.6655 21.1525V23.0451H51.7192C52.2293 22.3152 52.82 21.7743 53.5449 21.3688C54.2431 20.9631 55.0486 20.7739 55.9615 20.7739C56.8477 20.7739 57.6531 20.9361 58.3782 21.2876C59.1031 21.6391 59.6401 22.2339 60.0159 23.0992C60.4187 22.4773 60.9826 21.9366 61.7075 21.4769C62.4057 21.0172 63.2381 20.7739 64.2047 20.7739C64.9297 20.7739 65.6277 20.855 66.2454 21.0444C66.8629 21.2335 67.4001 21.504 67.8565 21.9095C68.313 22.3152 68.662 22.8289 68.9035 23.4507C69.1452 24.0996 69.2795 24.8838 69.2795 25.7761V35.1314H65.4668V27.2091C65.4668 26.7495 65.4399 26.2897 65.4129 25.8842C65.3862 25.4786 65.2787 25.1 65.1176 24.8027C64.9565 24.5052 64.7148 24.2619 64.4195 24.0726C64.0972 23.8834 63.6678 23.8022 63.1307 23.8022C62.5937 23.8022 62.1641 23.9104 61.8418 24.0996C61.4929 24.3159 61.2511 24.5864 61.0631 24.9108C60.8752 25.2623 60.7409 25.6408 60.6872 26.0465C60.6067 26.479 60.5799 26.9117 60.5799 27.3441V35.1314H56.767V27.2901C56.767 26.8846 56.767 26.4521 56.7402 26.0465C56.7133 25.6408 56.6596 25.2894 56.5254 24.9379C56.3911 24.5864 56.1495 24.3159 55.8542 24.0996C55.532 23.9104 55.0754 23.8022 54.4578 23.8022C54.27 23.8022 54.0551 23.8292 53.7597 23.9104C53.4644 23.9915 53.169 24.1538 52.9006 24.37C52.6051 24.6134 52.3636 24.9379 52.1755 25.3434C51.9877 25.7761 51.8802 26.3438 51.8802 27.0198V35.1314H48.0674V21.1525H51.6655Z" fill="#444444"/>
<path fill-rule="evenodd" clip-rule="evenodd" d="M76.69 23.8292C76.2604 24.1538 76.0188 24.6945 75.9382 25.4515H72.1254C72.179 24.5593 72.3938 23.8022 72.7966 23.2073C73.1995 22.6125 73.6827 22.1258 74.3003 21.7743C74.9179 21.4228 75.5891 21.1525 76.3678 20.9902C77.1196 20.855 77.8715 20.7739 78.6501 20.7739C79.3482 20.7739 80.0462 20.828 80.7713 20.9091C81.4963 21.0172 82.1407 21.2065 82.7314 21.504C83.3222 21.8014 83.8055 22.1799 84.1813 22.6936C84.5573 23.2073 84.7452 23.9104 84.7452 24.7485V32.0219C84.7452 32.6437 84.772 33.2657 84.8526 33.8335C84.9332 34.4013 85.0406 34.8338 85.2285 35.1314H81.3621C81.2815 34.9151 81.2277 34.6988 81.2009 34.4554C81.1473 34.239 81.1204 34.0229 81.0936 33.7795C80.476 34.4013 79.7779 34.8609 78.9455 35.1043C78.1131 35.3476 77.2808 35.4828 76.4216 35.4828C75.7502 35.4828 75.1327 35.4017 74.5687 35.2395C74.0049 35.0773 73.4948 34.8338 73.0652 34.4824C72.6356 34.1309 72.3133 33.6983 72.0717 33.1846C71.83 32.6708 71.6958 32.049 71.6958 31.3189C71.6958 30.5349 71.83 29.8589 72.1254 29.3451C72.3938 28.8313 72.743 28.4258 73.1995 28.1284C73.629 27.8309 74.1393 27.5876 74.7031 27.4254C75.2669 27.2901 75.8308 27.155 76.3947 27.0739C76.9586 26.9927 77.5224 26.9117 78.0862 26.8576C78.6501 26.8035 79.1333 26.7224 79.5631 26.6142C79.9926 26.5061 80.3417 26.3438 80.5834 26.1275C80.825 25.9382 80.9593 25.6408 80.9324 25.2353C80.9324 24.8298 80.8787 24.4783 80.7445 24.2349C80.6102 23.9915 80.4224 23.8022 80.2074 23.6671C79.9657 23.5318 79.7241 23.4507 79.4287 23.3966C79.1333 23.3696 78.8113 23.3426 78.4621 23.3426C77.7103 23.3426 77.1196 23.5047 76.69 23.8292ZM80.8787 30.5889C80.9056 30.2374 80.9324 29.94 80.9324 29.7237V28.2907C80.7713 28.4258 80.5834 28.5339 80.3417 28.615C80.1001 28.6962 79.8316 28.7773 79.5631 28.8313C79.2677 28.8854 78.9723 28.9396 78.677 28.9666C78.3816 28.9936 78.0594 29.0477 77.7641 29.1017C77.4686 29.1558 77.2001 29.2369 76.9317 29.3182C76.6364 29.3992 76.3947 29.5343 76.2066 29.6695C75.9919 29.8318 75.8308 30.0211 75.6966 30.2644C75.5623 30.5078 75.5085 30.8053 75.5085 31.1568C75.5085 31.5083 75.5623 31.7785 75.6966 32.0219C75.8308 32.2653 75.9919 32.4275 76.2066 32.5626C76.4216 32.6979 76.6632 32.8061 76.9586 32.8601C77.2538 32.9142 77.5492 32.9412 77.8446 32.9412C78.5964 32.9412 79.1871 32.8061 79.5899 32.5626C79.9926 32.3193 80.3148 31.9948 80.5029 31.6433C80.6908 31.2919 80.825 30.9404 80.8787 30.5889Z" fill="#444444"/>
<path d="M94.3305 23.6671C93.7129 23.6671 93.2027 23.8022 92.8 24.0726C92.3973 24.37 92.0482 24.7215 91.8065 25.1542C91.5381 25.6138 91.3501 26.1006 91.2426 26.6143C91.1353 27.1551 91.0816 27.6958 91.0816 28.2094C91.0816 28.7233 91.1353 29.2369 91.2426 29.7507C91.3501 30.2645 91.5381 30.751 91.7797 31.1568C92.0213 31.5894 92.3436 31.9408 92.7463 32.2112C93.149 32.4816 93.6592 32.6168 94.25 32.6168C95.1629 32.6168 95.8611 32.3465 96.3711 31.8327C96.8544 31.3189 97.1498 30.643 97.284 29.7778H100.963C100.721 31.6433 99.9959 33.0495 98.8145 34.0229C97.6332 34.9962 96.1296 35.4828 94.2768 35.4828C93.2296 35.4828 92.2899 35.2937 91.4306 34.9422C90.5445 34.5905 89.8196 34.1039 89.202 33.4821C88.5844 32.8601 88.128 32.1032 87.7789 31.2109C87.4298 30.3456 87.2688 29.3992 87.2688 28.3448C87.2688 27.2632 87.4298 26.2627 87.7521 25.3164C88.0474 24.3971 88.5038 23.586 89.1214 22.91C89.7389 22.234 90.464 21.7203 91.3501 21.3416C92.2361 20.9632 93.2296 20.7739 94.3574 20.7739C95.1898 20.7739 95.9683 20.8821 96.7471 21.0985C97.4988 21.3146 98.1701 21.6392 98.7877 22.0718C99.3785 22.5314 99.8618 23.0722 100.238 23.7212C100.614 24.3971 100.828 25.1812 100.882 26.0734H97.1498C96.9081 24.4783 95.9683 23.6671 94.3305 23.6671Z" fill="#444444"/>
<path d="M106.923 15.8257V23.099H107.004C107.487 22.288 108.105 21.6931 108.856 21.3144C109.608 20.963 110.333 20.7738 111.058 20.7738C112.079 20.7738 112.911 20.9088 113.582 21.1793C114.227 21.4767 114.737 21.8552 115.113 22.342C115.489 22.8557 115.757 23.4505 115.918 24.1536C116.052 24.8835 116.133 25.6677 116.133 26.5329V35.1311H112.32V27.2358C112.32 26.0732 112.132 25.2081 111.783 24.6402C111.434 24.0724 110.79 23.802 109.877 23.802C108.829 23.802 108.078 24.0995 107.621 24.7213C107.165 25.3432 106.923 26.3707 106.923 27.8037V35.1311H103.11V15.8257H106.923Z" fill="#444444"/>
<path fill-rule="evenodd" clip-rule="evenodd" d="M122.953 18.9891H119.14V15.8257H122.953V18.9891ZM122.953 35.1311H119.14V21.1522H122.953V35.1311Z" fill="#444444"/>
<path d="M129.585 21.1525V23.0992H129.665C130.149 22.2881 130.766 21.6932 131.545 21.3146C132.324 20.9631 133.102 20.7739 133.908 20.7739C134.928 20.7739 135.76 20.9091 136.432 21.1795C137.076 21.4769 137.586 21.8555 137.962 22.3421C138.338 22.8558 138.607 23.4507 138.768 24.1538C138.902 24.8838 138.983 25.6678 138.983 26.5331V35.1314H135.17V27.2361C135.17 26.0734 134.982 25.2083 134.633 24.6405C134.284 24.0726 133.639 23.8022 132.726 23.8022C131.679 23.8022 130.927 24.0996 130.471 24.7215C130.014 25.3434 129.773 26.371 129.773 27.8039V35.1314H125.96V21.1525H129.585Z" fill="#444444"/>
<path fill-rule="evenodd" clip-rule="evenodd" d="M148.434 32.6168C147.36 32.6168 146.527 32.3463 145.963 31.7785C145.4 31.2108 145.077 30.3185 145.024 29.0748H155.039C155.12 27.9932 155.012 26.9657 154.77 25.9653C154.529 24.9649 154.126 24.0996 153.562 23.3156C152.998 22.5314 152.273 21.9095 151.387 21.4499C150.501 20.9902 149.481 20.7739 148.299 20.7739C147.252 20.7739 146.286 20.9632 145.426 21.3416C144.54 21.7203 143.788 22.234 143.171 22.8829C142.553 23.5589 142.07 24.343 141.721 25.2353C141.372 26.1276 141.211 27.1009 141.211 28.1554C141.211 29.2369 141.372 30.2375 141.721 31.1296C142.043 32.0219 142.5 32.8061 143.117 33.455C143.735 34.1039 144.46 34.5905 145.346 34.9422C146.232 35.2937 147.198 35.4828 148.299 35.4828C149.884 35.4828 151.226 35.1314 152.327 34.4013C153.428 33.6713 154.26 32.4816 154.797 30.8053H151.441C151.307 31.2378 150.984 31.6433 150.421 32.0219C149.857 32.4276 149.212 32.6168 148.434 32.6168ZM148.192 23.6671C149.132 23.6671 149.83 23.9104 150.286 24.4241C150.743 24.9379 151.038 25.6679 151.226 26.6412H145.024C145.05 26.371 145.104 26.0734 145.211 25.7219C145.292 25.3704 145.48 25.046 145.722 24.7485C145.963 24.4511 146.286 24.1808 146.688 23.9645C147.091 23.7752 147.574 23.6671 148.192 23.6671Z" fill="#444444"/>
<path d="M159.013 21.1794V23.5318H159.093C159.55 22.6666 160.141 21.9906 160.866 21.5039C161.59 21.0171 162.503 20.7739 163.631 20.7739C164.544 20.7739 165.376 20.9901 166.128 21.4499C166.853 21.9094 167.363 22.5855 167.605 23.5047C168.008 22.5855 168.625 21.9094 169.431 21.4499C170.236 20.9901 171.096 20.7739 172.009 20.7739C175.07 20.7739 176.6 22.3962 176.6 25.6678V35.1312H174.909V25.7489C174.909 24.5863 174.667 23.7211 174.183 23.0991C173.7 22.5043 172.841 22.2069 171.633 22.2069C170.908 22.2069 170.29 22.3421 169.807 22.6124C169.324 22.9098 168.948 23.2885 168.652 23.748C168.357 24.2078 168.169 24.7485 168.062 25.3434C167.927 25.9652 167.874 26.5871 167.874 27.236V35.1312H166.182V25.6678C166.182 25.2082 166.128 24.7485 166.048 24.3158C165.94 23.9103 165.779 23.5318 165.564 23.2072C165.323 22.9098 165.027 22.6666 164.651 22.4772C164.276 22.288 163.819 22.2069 163.282 22.2069C162.557 22.2069 161.94 22.3421 161.429 22.5855C160.892 22.8557 160.463 23.2072 160.141 23.6669C159.791 24.1266 159.55 24.6674 159.389 25.2893C159.228 25.9112 159.147 26.6142 159.147 27.3441V35.1312H157.456V21.1794H159.013Z" fill="#444444"/>
<path fill-rule="evenodd" clip-rule="evenodd" d="M181.889 32.2923C181.514 31.7785 181.245 31.1837 181.084 30.5078C180.896 29.8589 180.815 29.2369 180.815 28.6149H191.475C191.502 27.6416 191.422 26.6682 191.207 25.7218C190.992 24.7755 190.643 23.9374 190.159 23.2073C189.649 22.4773 189.005 21.9095 188.226 21.4499C187.448 20.9902 186.481 20.7739 185.38 20.7739C184.279 20.7739 183.339 20.9902 182.561 21.3959C181.755 21.8283 181.111 22.3962 180.601 23.0722C180.091 23.7752 179.741 24.5593 179.5 25.4515C179.258 26.3437 179.124 27.2361 179.124 28.1553C179.124 29.1558 179.258 30.0751 179.5 30.9674C179.741 31.8597 180.091 32.6437 180.601 33.3196C181.111 33.9958 181.755 34.5365 182.561 34.915C183.339 35.3206 184.279 35.5098 185.38 35.5098C187.125 35.5098 188.495 35.0773 189.461 34.212C190.401 33.3467 191.072 32.1301 191.422 30.5349H189.73C189.461 31.6163 188.978 32.4816 188.28 33.1305C187.582 33.7793 186.615 34.1039 185.38 34.1039C184.575 34.1039 183.876 33.9416 183.313 33.5901C182.749 33.2386 182.265 32.8061 181.889 32.2923ZM188.575 23.7211C188.951 24.1808 189.247 24.7214 189.461 25.3163C189.649 25.9112 189.757 26.5331 189.783 27.182H180.815C180.896 26.5602 181.03 25.9382 181.272 25.3163C181.487 24.7214 181.782 24.1808 182.158 23.7211C182.534 23.2615 182.99 22.9099 183.527 22.6125C184.064 22.3421 184.682 22.2069 185.38 22.2069C186.051 22.2069 186.669 22.3421 187.206 22.6125C187.743 22.9099 188.199 23.2615 188.575 23.7211Z" fill="#444444"/>
<path d="M199.262 21.1795V22.6125H196.442V32.0218C196.442 32.5897 196.523 33.0225 196.684 33.3198C196.818 33.6443 197.194 33.8336 197.812 33.8606C198.295 33.8606 198.779 33.8336 199.262 33.7795V35.2125C199.02 35.2125 198.752 35.2125 198.51 35.2394C198.268 35.2666 198 35.2666 197.758 35.2666C196.63 35.2666 195.852 35.0503 195.395 34.5906C194.939 34.158 194.724 33.3468 194.751 32.1573V22.6125H192.334V21.1795H194.751V16.9885H196.442V21.1795H199.262Z" fill="#444444"/>
<path d="M203.262 21.1793V24.4508H203.316C203.746 23.3153 204.417 22.4501 205.33 21.8281C206.216 21.2063 207.29 20.9359 208.552 20.9899V22.6935C207.773 22.6664 207.075 22.7475 206.458 22.9908C205.84 23.2341 205.303 23.5857 204.847 24.0453C204.39 24.505 204.014 25.0187 203.772 25.6406C203.531 26.2624 203.397 26.9655 203.397 27.6956V35.1311H201.705V21.1793H203.262Z" fill="#444444"/>
<path fill-rule="evenodd" clip-rule="evenodd" d="M211.881 18.5566H210.189V15.8257H211.881V18.5566ZM211.881 35.1311H210.189V21.1793H211.881V35.1311Z" fill="#444444"/>
<path d="M223.614 23.0992C222.997 22.5044 222.111 22.207 220.983 22.207C220.178 22.207 219.48 22.3692 218.862 22.7207C218.244 23.0722 217.761 23.5047 217.358 24.0726C216.956 24.6405 216.633 25.2623 216.445 25.9653C216.231 26.6954 216.123 27.4254 216.123 28.1554C216.123 28.8855 216.231 29.6155 216.445 30.3185C216.633 31.0485 216.956 31.6704 217.358 32.2382C217.761 32.8061 218.244 33.2387 218.862 33.5902C219.48 33.9416 220.178 34.1039 220.983 34.1039C221.493 34.1039 222.004 33.9958 222.46 33.8065C222.916 33.6171 223.346 33.3197 223.695 32.9683C224.044 32.6168 224.34 32.2112 224.581 31.7245C224.823 31.2378 224.957 30.6971 225.011 30.1292H226.702C226.461 31.8327 225.843 33.1306 224.85 34.077C223.856 35.0232 222.567 35.5099 220.983 35.5099C219.936 35.5099 218.996 35.3207 218.191 34.9151C217.358 34.5365 216.687 34.0228 216.123 33.3467C215.559 32.6708 215.157 31.8868 214.861 30.9945C214.566 30.1022 214.432 29.1558 214.432 28.1554C214.432 27.1551 214.566 26.1816 214.861 25.2894C215.157 24.3971 215.559 23.64 216.123 22.9641C216.687 22.2881 217.358 21.7743 218.191 21.3688C218.996 20.9632 219.936 20.7739 220.983 20.7739C222.46 20.7739 223.722 21.1795 224.769 21.9637C225.789 22.7477 226.407 23.9645 226.595 25.5598H224.903C224.662 24.5053 224.232 23.6941 223.614 23.0992Z" fill="#444444"/>
<path d="M237.04 23.8834C236.852 23.5047 236.583 23.1803 236.261 22.937C235.912 22.6936 235.536 22.5044 235.107 22.3692C234.677 22.2612 234.221 22.207 233.737 22.207C233.361 22.207 232.985 22.234 232.61 22.3152C232.207 22.3962 231.858 22.5314 231.536 22.7207C231.213 22.91 230.945 23.1803 230.757 23.4778C230.569 23.7752 230.462 24.1538 230.462 24.6134C230.462 24.9919 230.569 25.3164 230.757 25.5597C230.945 25.8301 231.16 26.0465 231.455 26.2357C231.75 26.425 232.046 26.5602 232.395 26.6682C232.744 26.8036 233.039 26.8846 233.334 26.9657L235.59 27.4795C236.073 27.5606 236.557 27.6688 237.04 27.8579C237.496 28.0473 237.926 28.3177 238.302 28.615C238.651 28.9125 238.946 29.2911 239.188 29.7507C239.43 30.2104 239.537 30.724 239.537 31.3459C239.537 32.1032 239.376 32.752 239.027 33.2657C238.678 33.8065 238.248 34.2391 237.738 34.5635C237.201 34.9151 236.61 35.1584 235.939 35.2936C235.268 35.4289 234.623 35.5099 233.979 35.5099C232.341 35.5099 231.025 35.1314 230.032 34.3473C229.011 33.5631 228.421 32.3193 228.287 30.6159H229.978C230.059 31.7785 230.462 32.6437 231.24 33.2116C231.992 33.8065 232.932 34.1039 234.059 34.1039C234.462 34.1039 234.892 34.0498 235.348 33.9687C235.778 33.8876 236.181 33.7255 236.557 33.509C236.932 33.2927 237.255 33.0224 237.496 32.6708C237.738 32.3463 237.845 31.9408 237.845 31.4542C237.845 31.0485 237.765 30.697 237.604 30.3996C237.416 30.1291 237.201 29.8859 236.906 29.6967C236.61 29.5073 236.288 29.3721 235.939 29.2369C235.563 29.1018 235.187 28.9936 234.811 28.9125L232.636 28.4258C232.073 28.2907 231.562 28.1013 231.106 27.9121C230.649 27.7229 230.247 27.5065 229.898 27.2091C229.549 26.9386 229.253 26.5871 229.065 26.1816C228.877 25.7761 228.77 25.2894 228.77 24.6945C228.77 23.9915 228.931 23.3966 229.253 22.8829C229.549 22.3692 229.951 21.9637 230.462 21.6663C230.972 21.3688 231.536 21.1254 232.153 20.9902C232.771 20.855 233.361 20.7739 233.979 20.7739C234.677 20.7739 235.321 20.855 235.939 21.0444C236.53 21.2335 237.067 21.504 237.523 21.8824C237.98 22.2612 238.329 22.7207 238.597 23.2885C238.866 23.8563 239.027 24.5053 239.054 25.2623H237.362C237.335 24.7485 237.228 24.2889 237.04 23.8834Z" fill="#444444"/>
</svg>
