<svg width="211" height="56" viewBox="0 0 211 56" fill="none" xmlns="http://www.w3.org/2000/svg">
<path d="M0.78418 42.1113H26.2657L24.7842 44.1854H0.78418V42.1113Z" fill="#D40511"/>
<path d="M210.784 44.1854H179.599L181.154 42.1113H210.784V44.1854Z" fill="#D40511"/>
<path d="M0.78418 38.2593H29.1546L27.599 40.3334H0.78418L0.78418 38.2593Z" fill="#D40511"/>
<path d="M0.78418 34.4072H32.0434L30.4879 36.4813H0.78418V34.4072Z" fill="#D40511"/>
<path d="M210.784 40.3334H182.488L184.043 38.2593H210.784V40.3334Z" fill="#D40511"/>
<path d="M186.932 34.4072H210.784V36.4813H185.377L186.932 34.4072Z" fill="#D40511"/>
<path d="M28.2656 44.1853L41.7471 26.1853C41.7471 26.1853 56.7101 26.1853 58.4878 26.1853C60.3397 26.1853 60.3397 26.852 59.3767 28.1112C58.4878 29.2964 56.9323 31.4446 55.9693 32.7038C55.5249 33.3705 54.636 34.4816 57.4508 34.4816C60.4878 34.4816 79.8212 34.4816 79.8212 34.4816C77.9693 37.0001 71.8953 44.2594 61.0804 44.2594C52.3397 44.1853 28.2656 44.1853 28.2656 44.1853Z" fill="#D40511"/>
<path d="M105.451 34.4072L98.1174 44.185H78.8582L86.1915 34.4072H105.451Z" fill="#D40511"/>
<path d="M133.303 34.4072L125.969 44.185H106.71L114.044 34.4072H133.303Z" fill="#D40511"/>
<path d="M139.599 34.4072C139.599 34.4072 138.192 36.3332 137.525 37.222C135.08 40.4072 137.229 44.185 145.154 44.185C154.266 44.185 176.117 44.185 176.117 44.185L183.451 34.4072H139.599Z" fill="#D40511"/>
<path d="M37.7471 15L31.0063 23.963C31.0063 23.963 65.7471 23.963 67.5989 23.963C69.4508 23.963 69.4508 24.6296 68.4878 25.8889C67.5989 27.0741 66.0434 29.2222 65.0804 30.4815C64.636 31.0741 63.7471 32.2593 66.5619 32.2593C69.5989 32.2593 81.5249 32.2593 81.5249 32.2593C81.5249 32.2593 83.9693 29 85.9693 26.3333C88.7101 22.7037 86.1915 15.0741 76.4138 15.0741C67.5989 15 37.7471 15 37.7471 15Z" fill="#D40511"/>
<path d="M135.006 32.1852H87.8213L100.71 15H119.969L112.636 24.8519H121.229L128.636 15H147.895L135.006 32.1852Z" fill="#D40511"/>
<path d="M174.562 15L161.673 32.1852H141.229L154.117 15H174.562Z" fill="#D40511"/>
</svg>
