<svg width="184" height="56" viewBox="0 0 184 56" fill="none" xmlns="http://www.w3.org/2000/svg">
<g clip-path="url(#clip0_5390_63670)">
<path d="M22.7609 45.3022C22.7605 45.7747 22.5726 46.2278 22.2384 46.5619C21.9042 46.8961 21.451 47.0839 20.9783 47.0843H1.95762C1.48495 47.0843 1.03161 46.8968 0.697119 46.5629C0.36263 46.2291 0.174337 45.7761 0.173585 45.3036V17.4713C0.173398 17.237 0.219415 17.005 0.309005 16.7885C0.398595 16.5721 0.529999 16.3754 0.695699 16.2097C0.861399 16.0441 1.05814 15.9127 1.27468 15.8231C1.49121 15.7336 1.72328 15.6876 1.95762 15.6877H14.1646L22.7609 24.4521V45.3022Z" fill="#23A566"/>
<path d="M15.1106 24.2235L22.7609 31.5337V24.401H15.9841C15.6883 24.4043 15.3966 24.3309 15.1376 24.188L15.1106 24.2235Z" fill="#1C8F5A"/>
<path d="M22.7607 24.4381H15.9655C15.4928 24.4377 15.0396 24.2498 14.7054 23.9157C14.3712 23.5816 14.1832 23.1285 14.1829 22.656V15.6396L22.7607 24.4381Z" fill="#8ED1B1"/>
<path fill-rule="evenodd" clip-rule="evenodd" d="M17.322 41.2963H5.56812V31.1077H17.322V41.2963ZM12.1759 32.5774V34.3609H15.8774V32.5802L12.1759 32.5774ZM12.1759 35.4842V37.1882H15.8774V35.4756L12.1759 35.4842ZM12.1759 38.2745V39.8521H15.8774V38.266L12.1759 38.2745ZM10.7228 39.8436V38.266H7.02261V39.8436H10.7228ZM10.7228 37.1697V35.4756H7.02261V37.1782L10.7228 37.1697ZM10.7228 34.3794V32.5774H7.02261V34.3609L10.7228 34.3794Z" fill="white"/>
<path d="M62.9784 31.3946C62.9784 29.1595 61.2938 27.6315 59.3379 27.6315C57.382 27.6315 55.696 29.1595 55.696 31.3946C55.696 33.607 57.382 35.1576 59.3379 35.1576C61.2938 35.1576 62.9784 33.6041 62.9784 31.3946ZM65.8135 31.3946C65.8135 34.9702 62.906 37.6057 59.3365 37.6057C55.7684 37.6057 52.8608 34.9702 52.8608 31.3946C52.8608 27.7934 55.7684 25.1834 59.3379 25.1834C62.906 25.1834 65.8135 27.7934 65.8135 31.3946ZM76.9481 31.3946C76.9481 29.1595 75.2635 27.6315 73.3076 27.6315C71.3517 27.6315 69.6671 29.1595 69.6671 31.3946C69.6671 33.607 71.3517 35.1576 73.3076 35.1576C75.2635 35.1576 76.9481 33.6041 76.9481 31.3946ZM79.7833 31.3946C79.7833 34.9702 76.8757 37.6057 73.3076 37.6057C69.7395 37.6057 66.8306 34.9702 66.8306 31.3946C66.8306 27.7963 69.7395 25.1834 73.3076 25.1834C76.8757 25.1834 79.7833 27.7934 79.7833 31.3946ZM90.682 31.4159C90.682 29.2291 89.165 27.6301 87.2361 27.6301C85.2788 27.6301 83.6411 29.2291 83.6411 31.4159C83.6411 33.5814 85.2788 35.1576 87.2347 35.1576C89.165 35.1576 90.682 33.58 90.682 31.4159ZM93.1734 25.5583V36.7097C93.1734 41.2964 90.361 43.1708 87.0373 43.1708C85.8292 43.1905 84.6422 42.8537 83.6246 42.2026C82.6069 41.5515 81.8039 40.6149 81.3159 39.51L83.7831 38.5216C84.2234 39.5327 85.3001 40.7255 87.0359 40.7255C89.1622 40.7255 90.4804 39.4617 90.4804 37.0846V36.19H90.3809C89.7474 36.944 88.5244 37.6029 86.9819 37.6029C83.7547 37.6029 80.7974 34.8978 80.7974 31.4173C80.7974 27.9099 83.7547 25.1834 86.9819 25.1834C88.5216 25.1834 89.7446 25.8409 90.3823 26.5722H90.4818V25.5611H93.1734V25.5583ZM97.6122 19.0191H94.8467V37.2237H97.6108L97.6122 19.0191ZM101.614 31.2015L107.383 28.8968C107.066 28.12 106.111 27.5804 104.988 27.5804C103.547 27.5804 101.541 28.8045 101.614 31.2015ZM108.387 33.4351L110.588 34.8466C109.982 35.7079 109.176 36.4087 108.239 36.8885C107.301 37.3682 106.261 37.6124 105.209 37.6C101.541 37.6 98.8025 34.8736 98.8025 31.3889C98.8025 27.6954 101.565 25.1777 104.892 25.1777C108.241 25.1777 109.88 27.7423 110.417 29.1282L110.71 29.834L102.079 33.2733C102.74 34.52 103.768 35.1548 105.209 35.1548C106.653 35.1548 107.653 34.4718 108.387 33.4351ZM42.3938 29.7758V27.1402H51.6237C51.7131 27.5989 51.76 28.1427 51.76 28.7306C51.76 30.7073 51.199 33.1526 49.3879 34.8935C47.6266 36.6586 45.3767 37.6 42.3967 37.6C36.8713 37.6 32.2266 33.269 32.2266 27.9553C32.2266 22.6416 36.8713 18.3105 42.3967 18.3105C45.4534 18.3105 47.6295 19.4636 49.2658 20.9674L47.334 22.8276C46.1608 21.7683 44.5713 20.9461 42.3938 20.9461C38.3599 20.9461 35.2052 24.073 35.2052 27.9553C35.2052 31.8376 38.3599 34.9645 42.3938 34.9645C45.0102 34.9645 46.5002 33.9534 47.4548 33.0347C48.2303 32.2892 48.7388 31.2256 48.9405 29.7729L42.3938 29.7758ZM127.303 33.3996C127.303 34.8381 126.775 35.994 125.719 36.8659C124.647 37.7236 123.347 38.1524 121.816 38.1524C120.452 38.1524 119.252 37.7548 118.211 36.9582C117.17 36.163 116.45 35.0753 116.052 33.6978L118.073 32.8728C118.211 33.3613 118.401 33.8058 118.647 34.2034C118.891 34.601 119.175 34.946 119.496 35.2371C119.833 35.5126 120.201 35.7341 120.599 35.9017C120.996 36.0551 121.417 36.1318 121.861 36.1318C122.826 36.1318 123.614 35.8875 124.226 35.3976C124.839 34.8921 125.145 34.2261 125.145 33.3996C125.145 32.7109 124.893 32.1216 124.387 31.6331C123.912 31.1589 123.025 30.6988 121.724 30.2557C120.407 29.7814 119.589 29.4605 119.266 29.2901C117.522 28.404 116.649 27.0948 116.649 25.3652C116.649 24.1568 117.131 23.1244 118.096 22.2667C119.076 21.4104 120.278 20.9816 121.701 20.9816C122.957 20.9816 124.043 21.3025 124.961 21.9458C125.88 22.5734 126.492 23.3615 126.799 24.3101L124.824 25.1366C124.638 24.5214 124.249 23.9873 123.721 23.6214C123.185 23.2082 122.528 23.0009 121.746 23.0009C120.92 23.0009 120.224 23.2309 119.658 23.6896C119.09 24.1184 118.806 24.6765 118.806 25.3652C118.806 25.9332 119.029 26.4217 119.474 26.8349C119.964 27.2467 121.028 27.738 122.665 28.3046C124.333 28.8698 125.52 29.567 126.224 30.392C126.944 31.2043 127.303 32.2068 127.303 33.3996ZM129.479 21.348H131.591V26.5367L131.499 28.0987H131.591C131.912 27.5463 132.402 27.0877 133.061 26.7213C133.7 26.3628 134.419 26.1727 135.151 26.1689C136.527 26.1689 137.584 26.5665 138.318 27.3617C139.068 28.1427 139.443 29.2603 139.443 30.713V37.7847H137.331V31.1276C137.331 29.1069 136.436 28.0973 134.645 28.0973C133.787 28.0973 133.061 28.4566 132.463 29.1765C131.885 29.8718 131.575 30.7516 131.591 31.6559V37.7847H129.479V21.348ZM146.976 38.1524C145.322 38.1524 143.96 37.5844 142.888 36.4527C141.817 35.3209 141.281 33.8895 141.281 32.16C141.281 30.446 141.801 29.0231 142.842 27.8914C143.883 26.7426 145.214 26.1689 146.838 26.1689C148.505 26.1689 149.831 26.7128 150.809 27.7991C151.805 28.8698 152.302 30.3778 152.302 32.3204L152.279 32.5505H143.439C143.47 33.6524 143.837 34.5399 144.541 35.213C145.246 35.8861 146.088 36.2241 147.067 36.2241C148.415 36.2241 149.47 35.551 150.236 34.2034L152.119 35.1221C151.636 36.0466 150.905 36.8177 150.007 37.3487C149.118 37.8841 148.108 38.1524 146.976 38.1524ZM143.599 30.8067H150.052C150.03 30.4368 149.933 30.0753 149.767 29.7439C149.602 29.4125 149.37 29.118 149.088 28.8783C148.521 28.3572 147.755 28.0973 146.791 28.0973C145.996 28.0973 145.307 28.3415 144.724 28.8314C144.159 29.3214 143.784 29.9817 143.599 30.8067ZM159.399 38.1524C157.745 38.1524 156.382 37.5844 155.311 36.4527C154.24 35.3209 153.703 33.8895 153.703 32.16C153.703 30.446 154.224 29.0231 155.265 27.8914C156.306 26.7426 157.637 26.1689 159.261 26.1689C160.928 26.1689 162.252 26.7128 163.232 27.7991C164.228 28.8698 164.725 30.3778 164.725 32.3204L164.702 32.5505H155.862C155.893 33.6524 156.259 34.5399 156.964 35.213C157.669 35.8861 158.509 36.2241 159.489 36.2241C160.837 36.2241 161.893 35.551 162.658 34.2034L164.542 35.1221C164.059 36.0469 163.327 36.8182 162.428 37.3487C161.541 37.8841 160.531 38.1524 159.399 38.1524ZM156.022 30.8067H162.475C162.453 30.4368 162.356 30.0753 162.19 29.7439C162.025 29.4125 161.793 29.118 161.511 28.8783C160.944 28.3572 160.178 28.0973 159.214 28.0973C158.418 28.0973 157.73 28.3415 157.147 28.8314C156.582 29.3214 156.205 29.9817 156.022 30.8067ZM170.775 37.9678C169.857 37.9678 169.091 37.6838 168.479 37.1187C167.881 36.5521 167.576 35.764 167.56 34.7543V28.4637H165.586V26.5367H167.56V23.0932H169.672V26.5367H172.428V28.4651H169.672V34.0656C169.672 34.8154 169.819 35.3294 170.11 35.6035C170.4 35.8634 170.729 35.994 171.097 35.994C171.265 35.994 171.425 35.9798 171.579 35.9486C171.748 35.9017 171.9 35.8492 172.037 35.7881L172.704 37.6696C172.152 37.8684 171.51 37.9678 170.775 37.9678ZM183.273 34.662C183.273 35.6418 182.844 36.4683 181.987 37.1414C181.129 37.8145 180.05 38.1524 178.749 38.1524C177.617 38.1524 176.621 37.8613 175.764 37.2791C174.926 36.7065 174.284 35.8886 173.928 34.9375L175.81 34.1352C176.086 34.8083 176.483 35.3365 177.005 35.7185C177.54 36.0863 178.121 36.2695 178.749 36.2695C179.423 36.2695 179.982 36.1247 180.425 35.8336C180.885 35.5424 181.114 35.1988 181.114 34.7998C181.114 34.0813 180.563 33.553 179.46 33.2165L177.533 32.7337C175.343 32.1841 174.249 31.1276 174.249 29.567C174.249 28.5418 174.662 27.7224 175.489 27.1104C176.331 26.4827 177.402 26.1689 178.703 26.1689C179.698 26.1689 180.594 26.4061 181.389 26.8803C182.202 27.3546 182.767 27.9908 183.09 28.786L181.206 29.567C180.989 29.0902 180.617 28.7015 180.149 28.4651C179.661 28.1858 179.106 28.0431 178.543 28.0519C177.992 28.0519 177.495 28.1896 177.05 28.4637C176.621 28.7406 176.407 29.0771 176.407 29.4747C176.407 30.118 177.012 30.5767 178.222 30.8521L179.921 31.2881C182.155 31.839 183.273 32.9637 183.273 34.662Z" fill="#787879"/>
</g>
<defs>
<clipPath id="clip0_5390_63670">
<rect width="183.273" height="56" fill="white"/>
</clipPath>
</defs>
</svg>
