<svg width="601" height="163" viewBox="0 0 601 163" fill="none" xmlns="http://www.w3.org/2000/svg">
<path d="M195 96.4998V126.7H185.6V46.7998H207.6C216.1 46.7998 222.8 48.8998 227.5 52.9998C232.2 57.1998 234.5 62.9998 234.5 70.5998C234.5 78.1998 231.9 84.3998 226.7 89.1998C221.5 93.9998 214.4 96.3998 205.6 96.3998H195V96.4998ZM195 55.2998V88.0998H204.8C211.3 88.0998 216.2 86.5998 219.6 83.6998C223 80.7998 224.7 76.5998 224.7 71.1998C224.7 60.6998 218.5 55.3998 206 55.3998H195V55.2998ZM267.9 128.1C259.5 128.1 252.7 125.4 247.7 120.1C242.7 114.8 240.2 107.7 240.2 98.8998C240.2 89.2998 242.8 81.7998 248.1 76.3998C253.3 70.9998 260.4 68.2998 269.3 68.2998C277.8 68.2998 284.4 70.8998 289.2 76.1998C294 81.3998 296.4 88.6998 296.4 97.9998C296.4 107.1 293.8 114.4 288.7 119.9C283.6 125.4 276.6 128.1 267.9 128.1ZM268.6 75.9998C262.7 75.9998 258.1 77.9998 254.7 81.9998C251.3 85.9998 249.6 91.4998 249.6 98.4998C249.6 105.3 251.3 110.6 254.8 114.5C258.3 118.4 262.9 120.4 268.7 120.4C274.6 120.4 279.1 118.5 282.3 114.7C285.5 110.9 287.1 105.4 287.1 98.3998C287.1 91.2998 285.5 85.7998 282.3 81.8998C279.1 77.9998 274.5 75.9998 268.6 75.9998ZM382.8 69.6998L365.7 126.8H356.2L344.4 85.9998C344 84.3998 343.7 82.6998 343.5 80.6998H343.3C343.2 81.9998 342.8 83.7998 342.1 85.8998L329.3 126.9H320.2L302.9 69.7998H312.5L324.3 112.7C324.7 114 324.9 115.7 325.1 117.8H325.5C325.6 116.2 325.9 114.4 326.5 112.6L339.6 69.7998H348L359.8 112.8C360.2 114.2 360.5 115.9 360.6 117.9H361C361.1 116.5 361.4 114.7 361.9 112.8L373.5 69.7998H382.8V69.6998ZM439.3 100.5H399C399.1 106.9 400.9 111.8 404.1 115.2C407.3 118.6 411.9 120.4 417.6 120.4C424 120.4 429.9 118.3 435.3 114V122.6C430.3 126.2 423.7 128.1 415.4 128.1C407.3 128.1 401 125.5 396.4 120.3C391.8 115.1 389.5 107.8 389.5 98.3998C389.5 89.4998 392 82.2998 397 76.6998C402 71.0998 408.3 68.2998 415.7 68.2998C423.2 68.2998 428.9 70.6998 433 75.4998C437.1 80.2998 439.1 86.9998 439.1 95.5998V100.5H439.3ZM429.9 92.6998C429.9 87.3998 428.6 83.2998 426.1 80.3998C423.6 77.4998 420.1 75.9998 415.7 75.9998C411.4 75.9998 407.7 77.4998 404.7 80.5998C401.7 83.6998 399.8 87.6998 399.1 92.6998H429.9ZM482.8 78.8998C481.2 77.6998 478.9 77.0998 475.9 77.0998C472 77.0998 468.7 78.8998 466.1 82.5998C463.5 86.2998 462.2 91.2998 462.2 97.5998V126.7H453.1V69.5998H462.2V81.3998H462.4C463.7 77.3998 465.7 74.2998 468.4 71.9998C471.1 69.7998 474.1 68.5998 477.4 68.5998C479.8 68.5998 481.6 68.8998 482.9 69.3998V78.8998H482.8ZM525.3 126.7V46.7998H548C554.9 46.7998 560.4 48.4998 564.4 51.8998C568.4 55.2998 570.5 59.6998 570.5 65.0998C570.5 69.5998 569.3 73.5998 566.8 76.8998C564.3 80.1998 561 82.5998 556.7 83.9998V84.1998C562.1 84.7998 566.4 86.8998 569.6 90.2998C572.8 93.6998 574.4 98.1998 574.4 103.7C574.4 110.5 571.9 116.1 567 120.3C562.1 124.5 555.9 126.7 548.4 126.7H525.3ZM534.6 55.2998V81.0998H544.2C549.3 81.0998 553.4 79.8998 556.3 77.3998C559.2 74.8998 560.7 71.3998 560.7 66.9998C560.7 59.1998 555.6 55.3998 545.4 55.3998H534.6V55.2998ZM534.6 89.4998V118.3H547.3C552.8 118.3 557.1 117 560.1 114.4C563.1 111.8 564.6 108.2 564.6 103.7C564.6 94.2998 558.2 89.4998 545.3 89.4998H534.6ZM600 126.7H590.6V46.7998H600V126.7Z" fill="black"/>
<path d="M121.9 6.8V155.7C121.9 159.4 118.9 162.5 115.1 162.5H72.8C69.1 162.5 66 159.5 66 155.7V6.8C66 3.1 69 0 72.8 0H115.1C118.8 0.1 121.9 3.1 121.9 6.8Z" fill="url(#paint0_linear_2068_50)"/>
<path d="M88.9 47.4997V162.6H33V47.4997C33 43.7997 36 40.6997 39.8 40.6997H82.1C85.8 40.6997 88.9 43.6997 88.9 47.4997Z" fill="url(#paint1_linear_2068_50)"/>
<path d="M0 88.0998V155.8C0 159.5 3 162.6 6.8 162.6H55.9V88.0998C55.9 84.3998 52.9 81.2998 49.1 81.2998H6.8C3.1 81.2998 0 84.2998 0 88.0998Z" fill="url(#paint2_linear_2068_50)"/>
<defs>
<linearGradient id="paint0_linear_2068_50" x1="56.7811" y1="0.0348989" x2="126.797" y2="153.084" gradientUnits="userSpaceOnUse">
<stop stop-color="#E6AD10"/>
<stop offset="1" stop-color="#C87E0E"/>
</linearGradient>
<linearGradient id="paint1_linear_2068_50" x1="29.9633" y1="42.2109" x2="88.9461" y2="160.177" gradientUnits="userSpaceOnUse">
<stop stop-color="#F6D751"/>
<stop offset="1" stop-color="#E6AD10"/>
</linearGradient>
<linearGradient id="paint2_linear_2068_50" x1="9.7099" y1="77.3356" x2="42.188" y2="156.714" gradientUnits="userSpaceOnUse">
<stop stop-color="#F9E589"/>
<stop offset="1" stop-color="#F6D751"/>
</linearGradient>
</defs>
</svg>
