<svg width="262" height="57" viewBox="0 0 262 57" fill="none" xmlns="http://www.w3.org/2000/svg">
<g clip-path="url(#clip0_6919_36514)">
<path d="M49.1703 38.0598C47.351 36.4251 46.3474 34.0988 46.3474 30.7344V18.0029H50.581V31.0493C50.581 33.0613 51.114 34.2872 52.0235 35.1364C52.9643 36.0477 54.2817 36.5508 55.7547 36.5508C57.2296 36.5508 58.5463 36.0477 59.4877 35.1364C60.3966 34.2872 60.9296 33.0613 60.9296 31.0493V18.0029H65.1632V30.7344C65.1632 34.0988 64.1596 36.4251 62.341 38.0598C60.6476 39.5688 58.2332 40.323 55.7547 40.323C53.278 40.323 50.863 39.5688 49.1703 38.0598Z" fill="#333333"/>
<path d="M68.7593 40.0088V24.7623H72.6798V25.9881C73.8403 25.0444 75.2828 24.4475 76.9756 24.4475C79.0767 24.4475 80.99 25.391 82.2445 26.8998C83.2482 28.094 83.8128 29.6345 83.8128 32.2439V40.0088H79.7355V31.9299C79.7355 30.4208 79.3906 29.6345 78.8266 29.0688C78.293 28.5336 77.4781 28.2204 76.5367 28.2204C74.8128 28.2204 73.4007 29.3201 72.836 30.106V40.0088H68.7593Z" fill="#333333"/>
<path d="M89.4586 16.7456C90.9323 16.7456 92.1233 17.8779 92.1233 19.3552C92.1233 20.8326 90.9323 21.9649 89.4586 21.9649C87.9851 21.9649 86.7927 20.8326 86.7927 19.3552C86.7927 17.8779 87.9851 16.7456 89.4586 16.7456ZM91.497 40.0091H87.4203V24.7626H91.497V40.0091Z" fill="#333333"/>
<path d="M101.784 34.0677L105.954 24.7629H110.188L103.194 40.0095H100.372L93.3787 24.7629H97.6129L101.784 34.0677Z" fill="#333333"/>
<path d="M126.182 40.0084H122.261V38.7817C121.007 39.8517 119.565 40.3232 118.028 40.3232C115.77 40.3232 113.638 39.3165 112.289 37.7445C111.097 36.3618 110.345 34.4751 110.345 32.4011C110.345 27.9051 113.668 24.447 117.809 24.447C119.533 24.447 121.07 25.0129 122.261 25.9878V24.7618H126.182V40.0084ZM122.104 30.1055C121.258 28.974 119.91 28.22 118.341 28.22C115.958 28.22 114.422 30.1997 114.422 32.4011C114.422 34.7898 116.146 36.5502 118.436 36.5502C119.972 36.5502 121.321 35.7963 122.104 34.6642V30.1055Z" fill="#333333"/>
<path d="M139.353 28.3771C139.07 28.2829 138.475 28.2204 137.879 28.2204C136.091 28.2204 134.681 29.5085 134.178 30.4203V40.0088H130.102V24.7618H134.022V26.3021C134.932 25.1709 136.593 24.4475 138.442 24.4475C139.039 24.4475 139.385 24.511 139.823 24.5734L139.353 28.3771Z" fill="#333333"/>
<path d="M144.108 35.3878C145.393 37.0537 147.117 38.5317 150.002 38.5317C152.198 38.5317 154.518 36.9593 154.518 34.413C154.518 30.4206 149.814 29.9803 146.616 28C144.985 26.994 143.636 25.7052 143.636 23.4729C143.636 20.0467 146.365 17.6887 149.877 17.6887C152.7 17.6887 154.488 19.0095 155.49 19.8894L154.298 21.2725C153.013 20.141 151.758 19.4805 149.94 19.4805C147.494 19.4805 145.518 20.9894 145.518 23.3789C145.518 26.7116 149.94 27.1515 153.076 29.0999C154.894 30.2328 156.4 31.8667 156.4 34.413C156.4 37.9025 153.577 40.3239 150.002 40.3239C147.085 40.3239 144.608 39.0972 142.727 36.6137L144.108 35.3878Z" fill="#333333"/>
<path d="M165.807 40.3226C161.542 40.3226 158.438 36.9597 158.438 32.841C158.438 28.7226 161.542 25.3591 165.807 25.3591C170.072 25.3591 173.178 28.7226 173.178 32.841C173.178 36.9597 170.072 40.3226 165.807 40.3226ZM165.807 27.0562C162.578 27.0562 160.226 29.6343 160.226 32.841C160.226 36.0473 162.578 38.6251 165.807 38.6251C169.036 38.6251 171.39 36.0473 171.39 32.841C171.39 29.6343 169.036 27.0562 165.807 27.0562Z" fill="#333333"/>
<path d="M176.471 17.6897H178.259V40.0098H176.471V17.6897Z" fill="#333333"/>
<path d="M193.531 38.0599C192.527 39.38 190.676 40.3231 188.701 40.3231C186.349 40.3231 184.373 39.1916 183.339 37.3679C182.806 36.3942 182.492 35.2305 182.492 33.3125V25.6736H184.28V33.0298C184.28 35.0421 184.592 35.9853 185.095 36.7393C185.848 37.8712 187.133 38.6256 188.701 38.6256C190.645 38.6256 192.527 37.4316 193.468 35.6396V25.6736H195.256V40.0091H193.531V38.0599Z" fill="#333333"/>
<path d="M207.957 27.3711H203.096V35.23C203.096 36.5193 203.348 37.1473 203.724 37.6197C204.225 38.248 205.041 38.6253 206.107 38.6253C206.513 38.6253 207.109 38.5936 207.643 38.4369L207.957 40.0716C207.487 40.2288 206.672 40.3235 206.107 40.3235C204.789 40.3235 203.252 39.9144 202.281 38.688C201.653 37.9021 201.308 36.8649 201.308 35.1669V27.3711H197.295V25.674H201.308V21.7754H203.096V25.674H207.957V27.3711Z" fill="#333333"/>
<path d="M212.441 19.1033C213.319 19.1033 214.041 19.826 214.041 20.7064C214.041 21.5872 213.319 22.2779 212.441 22.2779C211.563 22.2779 210.873 21.5872 210.873 20.7064C210.873 19.826 211.563 19.1033 212.441 19.1033ZM211.563 25.6734H213.35V40.008H211.563V25.6734Z" fill="#333333"/>
<path d="M224.013 40.3226C219.747 40.3226 216.644 36.9597 216.644 32.841C216.644 28.7226 219.747 25.3591 224.013 25.3591C228.278 25.3591 231.383 28.7226 231.383 32.841C231.383 36.9597 228.278 40.3226 224.013 40.3226ZM224.013 27.0562C220.783 27.0562 218.43 29.6343 218.43 32.841C218.43 36.0473 220.783 38.6251 224.013 38.6251C227.243 38.6251 229.595 36.0473 229.595 32.841C229.595 29.6343 227.243 27.0562 224.013 27.0562Z" fill="#333333"/>
<path d="M236.4 27.6854C237.56 26.1449 239.443 25.3599 241.449 25.3599C243.519 25.3599 245.369 26.2082 246.529 27.7798C247.313 28.817 247.752 30.0117 247.752 32.3691V40.0088H245.964V32.4956C245.964 30.6092 245.651 29.6976 245.149 28.9745C244.335 27.7798 242.985 27.0574 241.418 27.0574C239.347 27.0574 237.56 28.1569 236.463 30.0433V40.0088H234.675V25.6734H236.4V27.6854Z" fill="#333333"/>
<path d="M251.673 36.7394C252.896 37.7769 254.401 38.4693 256 38.4693C257.789 38.4693 259.293 37.4626 259.293 35.9539C259.293 32.2754 251.045 34.2875 251.045 29.3839C251.045 26.7743 253.492 25.2021 255.906 25.2021C257.851 25.2021 259.45 25.863 260.517 26.5852L259.575 28.0633C258.353 27.2769 257.474 26.9001 256 26.9001C254.496 26.9001 252.833 27.6857 252.833 29.3515C252.833 32.5275 261.081 30.8295 261.081 35.859C261.081 38.5318 258.822 40.1665 256.126 40.1665C253.742 40.1665 251.829 39.2857 250.576 38.1234L251.673 36.7394Z" fill="#333333"/>
<path d="M26.8319 39.7523L35.4684 34.7795C35.8948 34.5345 36.1314 34.0813 36.1303 33.5908L36.1296 19.0117C36.1276 17.9573 34.983 17.3 34.0679 17.8266L25.3723 22.8336C24.9454 23.0794 24.7621 23.5344 24.7647 24.0265L24.7703 38.5711C24.7755 39.6245 25.9178 40.2787 26.8319 39.7523Z" fill="#F9AB4E"/>
<path d="M36.1295 33.6094V19.0126C36.1295 18.5217 35.8673 18.0685 35.4405 17.8243L18.808 8.27796C17.8914 7.75189 16.7483 8.41238 16.7483 9.46621V24.1307C16.7483 24.622 17.0128 25.0768 17.4407 25.3204L34.0732 34.7997C34.9898 35.3211 36.1295 34.6619 36.1295 33.6094Z" fill="#F47415"/>
<path d="M36.1295 33.6094V19.0126C36.1295 18.5217 35.8673 18.0685 35.4405 17.8243L18.808 8.27796C17.8914 7.75189 16.7483 8.41238 16.7483 9.46621V24.1307C16.7483 24.622 17.0128 25.0768 17.4407 25.3204L34.0732 34.7997C34.9898 35.3211 36.1295 34.6619 36.1295 33.6094Z" fill="#F47415"/>
<path d="M10.266 17.2467L1.62958 22.2194C1.20345 22.4653 0.966207 22.9177 0.967289 23.4081L0.96837 37.9873C0.969926 39.0424 2.11489 39.699 3.03024 39.1722L11.7256 34.1659C12.1525 33.9196 12.3358 33.4646 12.3334 32.973L12.3279 18.4275C12.3226 17.375 11.1801 16.7206 10.266 17.2467Z" fill="#F9AB4E"/>
<path d="M0.969238 23.3911V37.9874C0.969238 38.478 1.23178 38.9311 1.6579 39.1756L18.2909 48.7219C19.2076 49.2481 20.3505 48.5881 20.3505 47.5337V32.8697C20.3505 32.3775 20.0862 31.9231 19.6583 31.6797L3.02556 22.201C2.10886 21.6786 0.969238 22.3389 0.969238 23.3911Z" fill="#F47415"/>
<path d="M0.969238 23.3911V37.9874C0.969238 38.478 1.23178 38.9311 1.6579 39.1756L18.2909 48.7219C19.2076 49.2481 20.3505 48.5881 20.3505 47.5337V32.8697C20.3505 32.3775 20.0862 31.9231 19.6583 31.6797L3.02556 22.201C2.10886 21.6786 0.969238 22.3389 0.969238 23.3911Z" fill="#F47415"/>
</g>
<defs>
<clipPath id="clip0_6919_36514">
<rect width="260.113" height="56" fill="white" transform="translate(0.967285 0.5)"/>
</clipPath>
</defs>
</svg>
