<svg width="195" height="49" viewBox="0 0 195 49" fill="none" xmlns="http://www.w3.org/2000/svg">
<path d="M161.301 11.0377H157.524C157.148 11.0245 156.774 11.0888 156.424 11.2265C156.074 11.3642 155.757 11.5724 155.491 11.8381C155.225 12.1039 155.017 12.4215 154.879 12.7712C154.742 13.1208 154.677 13.4951 154.691 13.8707V38.6593H171.216L172.633 33.7015H161.301V11.0377ZM178.299 11.0377C177.923 11.0245 177.549 11.0888 177.199 11.2265C176.85 11.3642 176.532 11.5724 176.266 11.8381C176 12.1039 175.792 12.4215 175.655 12.7712C175.517 13.1208 175.453 13.4951 175.466 13.8707V38.6593H192.228L193.644 33.7015H182.312V11.0377H178.299ZM47.2736 13.8707V28.5078C47.3503 29.2505 47.2645 30.0009 47.0222 30.7072C46.7798 31.4134 46.3867 32.0584 45.8701 32.5975C45.3535 33.1365 44.7257 33.5567 44.0305 33.8289C43.3352 34.1011 42.589 34.2188 41.8438 34.1737C41.1025 34.2029 40.3635 34.0745 39.6756 33.7968C38.9877 33.5192 38.3666 33.0986 37.8534 32.5631C37.3401 32.0275 36.9464 31.389 36.6982 30.69C36.4501 29.9909 36.3532 29.2471 36.4139 28.5078V11.0377H29.8036V27.5634C29.8036 35.3541 34.2892 39.1314 41.8438 39.1314C49.3984 39.1314 53.8839 35.3541 53.8839 27.5634V11.0377H50.1066C49.359 11.0499 48.6455 11.3523 48.1168 11.8809C47.5882 12.4096 47.2858 13.1232 47.2736 13.8707ZM139.109 26.8552H148.553V21.8975H139.109V15.9954H150.677V11.0377H132.499V35.8263C132.477 36.1844 132.527 36.5433 132.646 36.8816C132.766 37.2198 132.953 37.5305 133.195 37.795C133.437 38.0595 133.731 38.2723 134.057 38.4208C134.384 38.5693 134.737 38.6504 135.096 38.6593H149.969L151.386 33.7015H139.109V26.8552ZM107.238 24.9665C107.108 26.758 107.356 28.5569 107.968 30.2458C108.579 31.9347 109.541 33.4755 110.788 34.7677C112.036 36.0599 113.542 37.0745 115.208 37.745C116.875 38.4156 118.664 38.7271 120.459 38.6593H127.777V33.7015H123.764C118.806 33.7015 114.085 32.049 114.085 24.9665C114.085 17.8841 118.806 16.2315 123.764 16.2315H127.777V11.0377H120.459C112.904 11.0377 107.238 16.2315 107.238 24.9665ZM13.2779 11.0377H3.83466C3.45908 11.0245 3.0848 11.0888 2.73512 11.2265C2.38544 11.3642 2.06784 11.5724 1.8021 11.8381C1.53636 12.1039 1.32816 12.4215 1.19045 12.7712C1.05275 13.1208 0.988497 13.4951 1.00169 13.8707V38.6593H13.2779C15.0729 38.7271 16.862 38.4156 18.5283 37.745C20.1947 37.0745 21.7009 36.0599 22.9486 34.7677C24.1962 33.4755 25.1573 31.9347 25.769 30.2458C26.3807 28.5569 26.6292 26.758 26.4985 24.9665C26.4985 16.2315 20.8325 11.0377 13.2779 11.0377ZM10.2089 33.7015H7.84805V16.2315H10.2089C15.1666 16.2315 19.8882 17.8841 19.8882 24.9665C19.8882 32.049 15.1666 33.7015 10.2089 33.7015Z" fill="black"/>
<path d="M92.1292 11.0382C91.6946 10.9715 91.251 10.9923 90.8245 11.0993C90.398 11.2062 89.9971 11.3972 89.6453 11.661C89.2936 11.9249 88.998 12.2562 88.7759 12.6357C88.5538 13.0152 88.4096 13.4352 88.3519 13.8711L80.089 37.9514L74.8953 29.9247C76.8111 29.4431 78.4977 28.3057 79.6621 26.71C80.8266 25.1143 81.3953 23.1611 81.2695 21.1897C81.254 19.841 80.9731 18.5086 80.4427 17.2686C79.9124 16.0285 79.1429 14.905 78.1783 13.9624C77.2137 13.0197 76.0729 12.2763 74.8209 11.7745C73.569 11.2728 72.2305 11.0226 70.8819 11.0382H60.9665C60.5909 11.025 60.2166 11.0892 59.8669 11.2269C59.5172 11.3646 59.1996 11.5728 58.9339 11.8386C58.6681 12.1043 58.4599 12.4219 58.3222 12.7716C58.1845 13.1213 58.1203 13.4956 58.1335 13.8711V38.6597H64.7438V15.9959H68.7571C74.187 15.9959 75.1313 19.5371 75.1313 21.1897C75.1313 26.3835 70.4097 26.6195 67.1046 26.8556L73.9509 38.6597H86.9354L88.3519 33.9381H98.7395L100.156 38.6597H107.474L98.2673 11.0382H92.1292ZM89.2962 29.6886L93.5457 15.5237L97.7952 29.6886H89.2962Z" fill="black"/>
</svg>
