<svg width="98" height="48" viewBox="0 0 98 48" fill="none" xmlns="http://www.w3.org/2000/svg">
<path d="M0 0V47.6973H49.2994L97.5539 0.00527502H0V0Z" fill="url(#paint0_linear_5796_61423)"/>
<path d="M58.4552 22.8225H56.3409V15.1794H58.4552C61.2782 15.1794 63.5251 16.0991 63.5251 18.9522C63.5252 21.8991 61.2783 22.8225 58.4552 22.8225ZM35.697 28.2864C34.5775 28.2864 33.528 28.0844 32.6208 27.7474L35.6666 18.2542H35.7314L38.7142 27.773C37.8154 28.0913 36.793 28.2864 35.7 28.2864M57.8949 8.97029H48.2924V31.5364L39.9043 8.97029H31.5894L24.4227 27.8365C23.665 23.0815 18.681 21.4351 14.7628 20.2075C12.18 19.3858 9.43122 18.1787 9.45609 16.8421C9.47792 15.7488 10.9327 14.7352 13.8025 14.8862C15.7364 14.9832 17.4426 15.1379 20.8291 16.7561L24.1648 11.0128C21.0748 9.4522 16.7927 8.47321 13.2894 8.46539H13.2677C9.18132 8.46539 5.77573 9.78208 3.66359 11.9378C2.19555 13.4453 1.40134 15.3524 1.36521 17.4756C1.31108 20.3837 2.39446 22.4477 4.66205 24.0984C6.5811 25.4879 9.02911 26.3826 11.1911 27.0527C13.8588 27.8659 16.0361 28.5754 16.0113 30.0886C15.9894 30.6398 15.782 31.1563 15.3789 31.5642C14.7152 32.2458 13.6949 32.4986 12.2835 32.5295C9.56236 32.583 7.54467 32.1646 4.33047 30.2874L1.36521 36.1109C4.56979 37.9142 8.36271 38.9687 12.2342 38.9687H12.7356C16.1035 38.9042 18.8248 37.9536 20.999 36.2269L21.3508 35.9232L20.3904 38.4749H29.1101L30.575 34.0728C32.1068 34.585 33.8518 34.873 35.6992 34.873C37.502 34.873 39.2024 34.6044 40.7071 34.1147L42.1152 38.4749H56.3432V29.3571H59.4474C66.9447 29.3571 71.3844 25.5859 71.3844 19.2563C71.3844 12.2115 67.0731 8.9798 57.8933 8.9798" fill="white"/>
<defs>
<linearGradient id="paint0_linear_5796_61423" x1="48.7781" y1="-0.000218973" x2="48.7781" y2="47.6974" gradientUnits="userSpaceOnUse">
<stop stop-color="#00B8F1"/>
<stop offset="0.2199" stop-color="#06A5E5"/>
<stop offset="0.7943" stop-color="#1870C5"/>
<stop offset="1" stop-color="#1D61BC"/>
</linearGradient>
</defs>
</svg>
