<svg width="163" height="49" viewBox="0 0 163 49" fill="none" xmlns="http://www.w3.org/2000/svg">
<rect x="1.06234" y="0.755699" width="161.23" height="47.2298" rx="5.00621" fill="black"/>
<rect x="1.06234" y="0.755699" width="161.23" height="47.2298" rx="5.00621" stroke="#313131" stroke-width="0.770186"/>
<path d="M58.8817 14.1854C58.435 14.1854 58.0721 14.0513 57.7918 13.7831C57.5182 13.5148 57.3809 13.1672 57.3809 12.7403C57.3809 12.2686 57.5495 11.892 57.8879 11.6115C58.2318 11.3309 58.6907 11.1901 59.2647 11.1901C59.6019 11.1901 59.9727 11.2382 60.3736 11.3343V10.7699C60.3736 10.4446 60.3032 10.2178 60.1636 10.0903C60.0229 9.96294 59.7784 9.89923 59.4277 9.89923C59.2178 9.89923 58.9844 9.92158 58.7298 9.96629C58.4752 10.0043 58.2329 10.0624 58.0029 10.1384C57.9392 10.1574 57.8845 10.1675 57.8398 10.1675C57.7572 10.1675 57.7159 10.1071 57.7159 9.98529V9.631C57.7159 9.54158 57.7282 9.47788 57.7539 9.43988C57.7795 9.40188 57.8465 9.36053 57.9549 9.31582C58.4518 9.1247 59.0034 9.02858 59.6086 9.02858C60.2139 9.02858 60.6918 9.156 60.9855 9.41082C61.2848 9.66564 61.4344 10.0646 61.4344 10.6067V13.8311C61.4344 13.9719 61.364 14.0412 61.2245 14.0412H60.7175C60.5768 14.0412 60.4975 13.9775 60.4785 13.8501L60.4305 13.5729C60.2072 13.7641 59.9593 13.9138 59.6846 14.0222C59.4166 14.1306 59.1497 14.1854 58.8817 14.1854ZM59.1966 13.3818C59.382 13.3818 59.5763 13.3438 59.7795 13.2667C59.9838 13.184 60.1815 13.0689 60.3724 12.9225V12.0038C60.0352 11.9333 59.7348 11.8987 59.4735 11.8987C58.8102 11.8987 58.4797 12.1569 58.4797 12.6743C58.4797 12.8979 58.5433 13.0733 58.6706 13.2008C58.7979 13.3215 58.9733 13.3829 59.1966 13.3829V13.3818ZM63.9067 14.0412C63.7727 14.0412 63.68 13.9742 63.6298 13.8401L61.9179 9.45664C61.8922 9.38064 61.8799 9.32588 61.8799 9.29347C61.8799 9.21076 61.9347 9.16941 62.043 9.16941H62.8269C62.8972 9.16941 62.9508 9.18506 62.9899 9.21747C63.0279 9.24317 63.0569 9.28788 63.0759 9.35158L64.2618 13.0264L65.4667 9.35158C65.4924 9.28788 65.5203 9.24317 65.5527 9.21747C65.5906 9.18506 65.6453 9.16941 65.7157 9.16941H66.4516C66.5599 9.16941 66.6146 9.21076 66.6146 9.29347C66.6146 9.32588 66.6012 9.37953 66.5766 9.45664L64.8748 13.8401C64.8492 13.9105 64.8145 13.9608 64.7699 13.9932C64.7319 14.0256 64.6738 14.0412 64.5979 14.0412H63.91H63.9067ZM68.4337 14.1854C67.987 14.1854 67.6241 14.0513 67.3438 13.7831C67.0702 13.5148 66.9329 13.1672 66.9329 12.7403C66.9329 12.2686 67.1015 11.892 67.4398 11.6115C67.7838 11.3309 68.2427 11.1901 68.8167 11.1901C69.1539 11.1901 69.5246 11.2382 69.9255 11.3343V10.7699C69.9255 10.4446 69.8552 10.2178 69.7156 10.0903C69.5749 9.96294 69.3303 9.89923 68.9797 9.89923C68.7698 9.89923 68.5364 9.92158 68.2818 9.96629C68.0272 10.0043 67.7849 10.0624 67.5548 10.1384C67.4912 10.1574 67.4365 10.1675 67.3918 10.1675C67.3092 10.1675 67.2679 10.1071 67.2679 9.98529V9.631C67.2679 9.54158 67.2801 9.47788 67.3058 9.43988C67.3315 9.40188 67.3985 9.36053 67.5068 9.31582C68.0037 9.1247 68.5554 9.02858 69.1606 9.02858C69.7658 9.02858 70.2438 9.156 70.5375 9.41082C70.8367 9.66564 70.9864 10.0646 70.9864 10.6067V13.8311C70.9864 13.9719 70.916 14.0412 70.7764 14.0412H70.2695C70.1288 14.0412 70.0495 13.9775 70.0305 13.8501L69.9825 13.5729C69.7591 13.7641 69.5112 13.9138 69.2365 14.0222C68.9685 14.1306 68.7017 14.1854 68.4337 14.1854ZM68.7497 13.3818C68.9339 13.3818 69.1293 13.3438 69.3326 13.2667C69.5369 13.184 69.7346 13.0689 69.9255 12.9225V12.0038C69.5883 11.9333 69.2879 11.8987 69.0266 11.8987C68.3633 11.8987 68.0328 12.1569 68.0328 12.6743C68.0328 12.8979 68.0964 13.0733 68.2237 13.2008C68.351 13.3215 68.5263 13.3829 68.7497 13.3829V13.3818ZM72.3945 14.0412C72.2538 14.0412 72.1845 13.9708 72.1845 13.8311V9.38176C72.1845 9.24094 72.2549 9.17164 72.3945 9.17164H73.1024C73.2431 9.17164 73.3124 9.24206 73.3124 9.38176V13.8311C73.3124 13.9719 73.242 14.0412 73.1024 14.0412H72.3945ZM72.7473 8.36694C72.5374 8.36694 72.371 8.30994 72.2504 8.19482C72.1298 8.0797 72.0684 7.921 72.0684 7.71647C72.0684 7.51194 72.1287 7.35323 72.2504 7.23811C72.371 7.123 72.5374 7.066 72.7473 7.066C72.9573 7.066 73.1237 7.123 73.2443 7.23811C73.3649 7.35323 73.4263 7.51194 73.4263 7.71647C73.4263 7.921 73.366 8.0797 73.2443 8.19482C73.1237 8.30994 72.9573 8.36694 72.7473 8.36694ZM75.6786 14.0993C75.3023 14.0993 75.0153 13.9943 74.8176 13.7831C74.6267 13.5662 74.5307 13.2533 74.5307 12.8453V7.17106C74.5307 7.03023 74.601 6.96094 74.7406 6.96094H75.4486C75.5893 6.96094 75.6585 7.03135 75.6585 7.17106V12.7593C75.6585 12.9191 75.6875 13.0342 75.7445 13.1035C75.8081 13.1739 75.9097 13.2086 76.0504 13.2086C76.0828 13.2086 76.1174 13.2052 76.1554 13.1985C76.1934 13.1918 76.2258 13.1885 76.2514 13.1885C76.372 13.1885 76.4335 13.2555 76.4335 13.3896V13.7819C76.4335 13.9161 76.3665 13.9988 76.2325 14.0312C76.0415 14.0759 75.8561 14.0982 75.6775 14.0982L75.6786 14.0993ZM78.4111 14.1854C77.9644 14.1854 77.6015 14.0513 77.3212 13.7831C77.0476 13.5148 76.9103 13.1672 76.9103 12.7403C76.9103 12.2686 77.0789 11.892 77.4172 11.6115C77.7612 11.3309 78.2201 11.1901 78.7941 11.1901C79.1324 11.1901 79.5021 11.2382 79.9029 11.3343V10.7699C79.9029 10.4446 79.8326 10.2178 79.693 10.0903C79.5523 9.96294 79.3078 9.89923 78.9571 9.89923C78.7472 9.89923 78.5138 9.92158 78.2592 9.96629C78.0046 10.0043 77.7623 10.0624 77.5323 10.1384C77.4686 10.1574 77.4139 10.1675 77.3692 10.1675C77.2866 10.1675 77.2453 10.1071 77.2453 9.98529V9.631C77.2453 9.54158 77.2576 9.47788 77.2832 9.43988C77.3089 9.40188 77.3759 9.36053 77.4842 9.31582C77.9812 9.1247 78.5328 9.02858 79.138 9.02858C79.7433 9.02858 80.2212 9.156 80.5149 9.41082C80.8141 9.66564 80.9638 10.0646 80.9638 10.6067V13.8311C80.9638 13.9719 80.8934 14.0412 80.7538 14.0412H80.2469C80.1062 14.0412 80.0269 13.9775 80.0079 13.8501L79.9599 13.5729C79.7366 13.7641 79.4887 13.9138 79.214 14.0222C78.946 14.1306 78.6791 14.1854 78.4111 14.1854ZM78.726 13.3818C78.9102 13.3818 79.1056 13.3438 79.3089 13.2667C79.5132 13.184 79.7109 13.0689 79.9018 12.9225V12.0038C79.5635 11.9333 79.2642 11.8987 79.0029 11.8987C78.3396 11.8987 78.008 12.1569 78.008 12.6743C78.008 12.8979 78.0716 13.0733 78.1989 13.2008C78.3262 13.3215 78.5015 13.3829 78.7249 13.3829L78.726 13.3818ZM84.3886 13.2566C84.7962 13.2566 85.0988 13.1192 85.2964 12.8453C85.4941 12.5648 85.5924 12.1401 85.5924 11.5723C85.5924 11.0046 85.493 10.5966 85.2964 10.3284C85.1055 10.0546 84.8051 9.91711 84.3975 9.91711C83.9899 9.91711 83.6002 10.0378 83.2507 10.2803V12.8833C83.608 13.1326 83.9866 13.2566 84.3886 13.2566ZM84.6756 14.1474C84.3886 14.1474 84.115 14.096 83.8537 13.9943C83.5924 13.8859 83.3657 13.7361 83.1748 13.545L83.1078 13.8512C83.0821 13.9786 82.9995 14.0423 82.8588 14.0423H82.3328C82.1921 14.0423 82.1229 13.9719 82.1229 13.8322V7.17106C82.1229 7.03023 82.1932 6.96094 82.3328 6.96094H83.0408C83.1815 6.96094 83.2507 7.03135 83.2507 7.17106V9.60194C83.703 9.2197 84.2032 9.02747 84.7515 9.02747C85.3567 9.02747 85.838 9.25435 86.1954 9.707C86.5583 10.1596 86.7403 10.7688 86.7403 11.5343C86.7403 12.0641 86.651 12.5268 86.4723 12.9225C86.3014 13.3181 86.058 13.621 85.7465 13.8311C85.4405 14.0412 85.0832 14.1474 84.6756 14.1474ZM88.8218 14.0993C88.4454 14.0993 88.1585 13.9943 87.9608 13.7831C87.7699 13.5662 87.6738 13.2533 87.6738 12.8453V7.17106C87.6738 7.03023 87.7442 6.96094 87.8838 6.96094H88.5917C88.7313 6.96094 88.8017 7.03135 88.8017 7.17106V12.7593C88.8017 12.9191 88.8307 13.0342 88.8888 13.1035C88.9524 13.1739 89.054 13.2086 89.1936 13.2086C89.226 13.2086 89.2606 13.2052 89.2986 13.1985C89.3365 13.1918 89.3689 13.1885 89.3946 13.1885C89.5163 13.1885 89.5766 13.2555 89.5766 13.3896V13.7819C89.5766 13.9161 89.5096 13.9988 89.3756 14.0312C89.1847 14.0759 88.9993 14.0982 88.8206 14.0982L88.8218 14.0993ZM92.557 14.1854C91.7541 14.1854 91.1455 13.9686 90.7313 13.5349C90.317 13.1013 90.1093 12.4698 90.1093 11.6405C90.1093 10.8112 90.3103 10.1764 90.7123 9.71706C91.1199 9.2577 91.6871 9.02858 92.4141 9.02858C93.0394 9.02858 93.5162 9.2007 93.8479 9.54494C94.1862 9.88247 94.3537 10.3642 94.3537 10.9901C94.3537 11.2069 94.3381 11.4338 94.3068 11.6696C94.2934 11.7523 94.2689 11.8104 94.2298 11.8417C94.1974 11.8674 94.1538 11.8797 94.0958 11.8797H91.1511C91.1712 12.3648 91.3052 12.7213 91.5531 12.9515C91.8077 13.1751 92.1963 13.2868 92.7189 13.2868C93.1019 13.2868 93.5028 13.2265 93.9249 13.1046C93.9752 13.0923 94.0143 13.0823 94.0388 13.0756C94.0645 13.0689 94.0868 13.0655 94.1058 13.0655C94.2019 13.0655 94.2499 13.1292 94.2499 13.2566V13.6009C94.2499 13.697 94.2331 13.7663 94.2019 13.811C94.1762 13.849 94.1125 13.887 94.0109 13.9261C93.5832 14.0982 93.0997 14.1843 92.557 14.1843V14.1854ZM93.361 11.1231V11.0459C93.361 10.657 93.2739 10.3597 93.1031 10.1563C92.9378 9.95176 92.691 9.85006 92.3661 9.85006C92.0221 9.85006 91.7407 9.96517 91.5252 10.1943C91.3086 10.4245 91.1835 10.733 91.1522 11.1231H93.361ZM97.8243 14.0412C97.6847 14.0412 97.6144 13.9708 97.6144 13.8311V9.38176C97.6144 9.24094 97.6847 9.17164 97.8243 9.17164H98.5323C98.673 9.17164 98.7422 9.24206 98.7422 9.38176V13.8311C98.7422 13.9719 98.673 14.0412 98.5323 14.0412H97.8243ZM98.1794 8.36694C97.9684 8.36694 97.8031 8.30994 97.6825 8.19482C97.5619 8.0797 97.5005 7.921 97.5005 7.71647C97.5005 7.51194 97.5619 7.35323 97.6825 7.23811C97.8031 7.123 97.9695 7.066 98.1794 7.066C98.3894 7.066 98.5546 7.123 98.6752 7.23811C98.7969 7.35323 98.8572 7.51194 98.8572 7.71647C98.8572 7.921 98.7969 8.0797 98.6752 8.19482C98.5546 8.30994 98.3882 8.36694 98.1794 8.36694ZM100.172 14.0412C100.032 14.0412 99.9616 13.9708 99.9616 13.8311V9.38176C99.9616 9.24094 100.032 9.17164 100.172 9.17164H100.679C100.768 9.17164 100.828 9.18394 100.859 9.20964C100.897 9.23535 100.923 9.28341 100.936 9.3527L101.014 9.707C101.612 9.25435 102.236 9.02747 102.887 9.02747C103.353 9.02747 103.707 9.15153 103.949 9.40076C104.19 9.64329 104.312 9.99758 104.312 10.4625V13.8311C104.312 13.9719 104.242 14.0412 104.101 14.0412H103.394C103.254 14.0412 103.183 13.9708 103.183 13.8311V10.8168C103.183 10.5039 103.12 10.2781 102.992 10.1373C102.865 9.99088 102.661 9.91711 102.38 9.91711C101.959 9.91711 101.529 10.0579 101.089 10.3385V13.8311C101.089 13.9719 101.019 14.0412 100.88 14.0412H100.172ZM43.3075 32.4343C42.7358 32.4343 42.1786 32.3706 41.6325 32.2444C41.0865 32.1169 40.6677 31.9716 40.3763 31.8062C40.1976 31.7045 40.0871 31.6039 40.0424 31.5022C39.9977 31.4005 39.9765 31.2999 39.9765 31.1982V30.645C39.9765 30.417 40.0592 30.3019 40.2233 30.3019C40.287 30.3019 40.3528 30.3142 40.4232 30.3399C40.4935 30.3656 40.5851 30.4036 40.699 30.455C41.0675 30.6204 41.4662 30.7478 41.8983 30.8361C42.3293 30.9255 42.7615 30.9702 43.1925 30.9702C43.877 30.9702 44.4075 30.8495 44.7815 30.6081C45.1556 30.3678 45.3432 30.0247 45.3432 29.5799C45.3432 29.2748 45.245 29.0199 45.0473 28.8176C44.8497 28.6153 44.4856 28.4242 43.953 28.2454L42.3729 27.7503C41.5734 27.4966 40.9927 27.1289 40.6309 26.6461C40.2691 26.1632 40.0882 25.6357 40.0882 25.0646C40.0882 24.6075 40.1865 24.204 40.3841 23.8542C40.5806 23.5055 40.8408 23.2059 41.1647 22.9589C41.4885 22.7119 41.8659 22.5242 42.2981 22.3968C42.7302 22.2705 43.1869 22.2056 43.6693 22.2056C43.9105 22.2056 44.154 22.2224 44.403 22.2526C44.6498 22.285 44.8854 22.3264 45.1065 22.3766C45.3276 22.4281 45.5353 22.4851 45.7251 22.5488C45.9161 22.6125 46.0679 22.6762 46.1818 22.7399C46.3348 22.8293 46.442 22.9187 46.5057 23.0059C46.5693 23.0953 46.6006 23.2149 46.6006 23.368V23.8832C46.6006 24.1112 46.518 24.2264 46.3538 24.2264C46.2645 24.2264 46.126 24.1816 45.9351 24.0922C45.3131 23.8128 44.6152 23.6731 43.8413 23.6731C43.2182 23.6731 42.7369 23.7748 42.3952 23.9771C42.0524 24.1816 41.8804 24.5046 41.8804 24.9495C41.8804 25.2535 41.9876 25.5116 42.2043 25.7218C42.4198 25.9308 42.8196 26.1319 43.4036 26.3219L44.9457 26.8171C45.7329 27.0719 46.2935 27.4206 46.6296 27.8643C46.9657 28.3091 47.1344 28.8176 47.1344 29.3888C47.1344 29.8593 47.0383 30.2818 46.8496 30.6551C46.6587 31.0295 46.3951 31.3502 46.059 31.6173C45.7229 31.8834 45.3198 32.0879 44.8497 32.2276C44.3795 32.3673 43.8659 32.4366 43.3075 32.4366M29.3336 32.1482C29.1426 32.1482 29.0042 32.1136 28.9148 32.0443C28.8255 31.9739 28.7496 31.8319 28.687 31.6151L26.1354 23.1936C26.0718 22.9779 26.0394 22.8315 26.0394 22.7555C26.0394 22.5778 26.1287 22.4895 26.3052 22.4895H27.3705C27.5726 22.4895 27.7155 22.5253 27.7993 22.5946C27.8819 22.665 27.9545 22.8069 28.0181 23.0226L29.8461 30.2248L31.5401 23.0226C31.5915 22.8069 31.6607 22.6628 31.7489 22.5946C31.8383 22.5242 31.9834 22.4895 32.1867 22.4895H33.0621C33.2642 22.4895 33.4105 22.5253 33.4999 22.5946C33.5892 22.665 33.6573 22.8069 33.7087 23.0226L35.4228 30.3198L37.3066 23.0226C37.3702 22.8069 37.4428 22.6628 37.5254 22.5946C37.6081 22.5242 37.751 22.4895 37.9542 22.4895H38.9626C39.139 22.4895 39.2284 22.5789 39.2284 22.7555C39.2284 22.8069 39.2217 22.8639 39.2094 22.9276C39.1971 22.9914 39.1714 23.0808 39.1334 23.1936L36.5059 31.6151C36.4423 31.8319 36.3663 31.975 36.2781 32.0443C36.1888 32.1147 36.0503 32.1482 35.8594 32.1482H34.9258C34.7226 32.1482 34.5774 32.1102 34.4881 32.0331C34.3988 31.9571 34.3284 31.8118 34.2793 31.595L32.5853 24.5829L30.9103 31.595C30.8589 31.8118 30.7897 31.9571 30.7015 32.0331C30.6122 32.1091 30.467 32.1482 30.2638 32.1482H29.3302H29.3313H29.3336ZM20.5945 30.968C20.9496 30.968 21.3237 30.9021 21.7179 30.7679C22.111 30.6338 22.4538 30.4036 22.7452 30.0728C22.9228 29.8705 23.0467 29.638 23.116 29.3765C23.1863 29.1161 23.2209 28.802 23.2209 28.4332V27.9761C22.9038 27.9001 22.5699 27.8397 22.2215 27.795C21.8731 27.7503 21.5325 27.7291 21.2031 27.7291C20.4795 27.7291 19.9402 27.8755 19.5851 28.1672C19.23 28.4589 19.0513 28.878 19.0513 29.4245C19.0513 29.9331 19.1853 30.3175 19.4511 30.5779C19.7168 30.8383 20.0976 30.9691 20.5934 30.9691M25.0087 29.3105C25.0087 29.7174 25.0489 30.0403 25.1327 30.2829C25.2153 30.5254 25.3326 30.7847 25.4855 31.0641C25.5369 31.1535 25.5615 31.2362 25.5615 31.3111C25.5615 31.4262 25.4911 31.5346 25.3515 31.6352L24.667 32.0924C24.5654 32.1561 24.4694 32.1885 24.3823 32.1885C24.2673 32.1885 24.1612 32.1371 24.0584 32.0354C23.9055 31.8822 23.7759 31.7146 23.6676 31.5313C23.5593 31.348 23.4487 31.1345 23.3337 30.8931C22.4828 31.8968 21.4175 32.3975 20.1356 32.3975C19.221 32.3975 18.4986 32.1371 17.9648 31.6162C17.431 31.0954 17.1653 30.3969 17.1653 29.5195C17.1653 28.593 17.4947 27.8464 18.1557 27.2809C18.8157 26.7165 19.7034 26.4337 20.8201 26.4337C21.1886 26.4337 21.5727 26.4616 21.9725 26.5186C22.3723 26.5756 22.7877 26.655 23.2198 26.7567V25.9565C23.2198 25.1305 23.0479 24.5493 22.705 24.2129C22.3622 23.8765 21.7715 23.7089 20.934 23.7089C20.5532 23.7089 20.1624 23.7558 19.7626 23.8519C19.3629 23.9481 18.972 24.071 18.5912 24.2241C18.4126 24.3001 18.2875 24.3482 18.2105 24.3672C18.1345 24.3862 18.0765 24.3951 18.0396 24.3951C17.8866 24.3951 17.8118 24.28 17.8118 24.052V23.5178C17.8118 23.3389 17.8375 23.2138 17.8877 23.1366C17.9391 23.0606 18.0407 22.9835 18.1915 22.9086C18.5723 22.7175 19.029 22.5532 19.5627 22.4124C20.0965 22.2727 20.6604 22.2023 21.2567 22.2023C22.5521 22.2023 23.5001 22.4985 24.1031 23.0875C24.705 23.6787 25.0065 24.5706 25.0065 25.7642V29.3083H25.0054L25.0087 29.3105ZM45.3644 37.7286C41.7833 40.3741 36.5897 41.7812 32.1185 41.7812C25.8518 41.7812 20.2082 39.4632 15.938 35.604C15.603 35.3011 15.9012 34.8865 16.3043 35.1223C20.9117 37.8058 26.6089 39.4219 32.4949 39.4219C36.4646 39.4219 40.8285 38.5971 44.843 36.8926C45.4493 36.6356 45.9552 37.2916 45.3633 37.7298L45.3644 37.7286ZM46.8541 36.0253C46.3962 35.4375 43.8268 35.7482 42.6722 35.8856C42.3226 35.9281 42.269 35.6219 42.5828 35.4006C44.6341 33.9599 47.992 34.3746 48.3828 34.8574C48.7759 35.3447 48.2801 38.7155 46.3583 40.3238C46.0624 40.5708 45.781 40.4401 45.9127 40.1126C46.346 39.0318 47.313 36.6121 46.8552 36.0253M53.1755 31.6553C52.9366 31.6553 52.8171 31.5369 52.8171 31.2966V22.9276C52.8171 22.6885 52.9354 22.5689 53.1755 22.5689H53.9628C54.0811 22.5689 54.1749 22.5935 54.2397 22.6415C54.3056 22.6896 54.3503 22.7801 54.3737 22.9109L54.482 23.4842C55.6288 22.6963 56.7444 22.3006 57.8309 22.3006C58.9174 22.3006 59.6924 22.7265 60.0877 23.5725C61.2702 22.7242 62.4506 22.3006 63.6331 22.3006C64.4572 22.3006 65.0904 22.5331 65.5314 22.9992C65.9725 23.4641 66.1947 24.1291 66.1947 24.9897V31.2988C66.1947 31.538 66.0741 31.6576 65.8363 31.6576H64.7799C64.541 31.6576 64.4215 31.5391 64.4215 31.2988V25.4915C64.4215 24.8936 64.3076 24.4521 64.0809 24.166C63.8542 23.8788 63.4958 23.7368 63.0067 23.7368C62.1345 23.7368 61.2568 24.0062 60.3724 24.5438C60.3847 24.6276 60.3903 24.7159 60.3903 24.8131V31.3033C60.3903 31.5425 60.2697 31.6621 60.0319 31.6621H58.9755C58.7365 31.6621 58.617 31.5436 58.617 31.3033V25.496C58.617 24.8981 58.5031 24.4566 58.2765 24.1705C58.0498 23.8832 57.6913 23.7413 57.2022 23.7413C56.2944 23.7413 55.4223 24.0039 54.587 24.5292V31.3055C54.587 31.5447 54.4664 31.6643 54.2285 31.6643H53.1766V31.6598L53.1755 31.6553ZM70.5911 31.8878C69.7435 31.8878 69.0657 31.6453 68.5587 31.1614C68.0518 30.6774 67.7972 30.0303 67.7972 29.2155C67.7972 28.3426 68.1076 27.6464 68.7296 27.1266C69.3504 26.6069 70.1868 26.3465 71.2365 26.3465C71.9065 26.3465 72.658 26.4482 73.4933 26.6516V25.4681C73.4933 24.8221 73.347 24.3683 73.0544 24.1056C72.7619 23.843 72.2627 23.71 71.5592 23.71C70.7351 23.71 69.93 23.8307 69.1416 24.0688C68.8669 24.1526 68.695 24.1951 68.6224 24.1951C68.4806 24.1951 68.408 24.0866 68.408 23.8721V23.3881C68.408 23.2339 68.4325 23.1188 68.4806 23.0472C68.5286 22.9746 68.6224 22.9109 68.7675 22.8505C69.1383 22.684 69.605 22.5499 70.1723 22.4471C70.7396 22.3442 71.3024 22.2951 71.8641 22.2951C72.9986 22.2951 73.8339 22.532 74.371 23.0036C74.9081 23.4753 75.1772 24.1951 75.1772 25.1641V31.2943C75.1772 31.5335 75.0566 31.6531 74.8188 31.6531H74.0494C73.8227 31.6531 73.6909 31.5391 73.6541 31.3122L73.5636 30.7199C73.1348 31.0909 72.6591 31.3782 72.141 31.5805C71.6217 31.7828 71.1047 31.8856 70.5922 31.8856L70.5911 31.8878ZM71.0221 30.5444C71.4174 30.5444 71.8283 30.4662 72.2594 30.3119C72.6882 30.1577 73.1013 29.9286 73.4955 29.6302V27.8028C72.8501 27.6486 72.2169 27.5704 71.5972 27.5704C70.2482 27.5704 69.5727 28.0901 69.5727 29.1295C69.5727 29.5832 69.6988 29.9342 69.949 30.1789C70.1991 30.4237 70.5587 30.5466 71.0232 30.5466H71.021L71.0221 30.5444ZM77.75 31.6553C77.511 31.6553 77.3916 31.5369 77.3916 31.2966V22.9276C77.3916 22.6885 77.5099 22.5689 77.75 22.5689H78.5373C78.6556 22.5689 78.7494 22.5935 78.8142 22.6415C78.8801 22.6896 78.9247 22.7801 78.9482 22.9109L79.0721 23.9134C79.3949 23.5658 79.6997 23.292 79.9856 23.0886C80.2726 22.8863 80.5674 22.7354 80.8711 22.6415C81.1759 22.5454 81.5009 22.4996 81.8471 22.4996C81.9889 22.4996 82.134 22.5052 82.2759 22.5175C82.478 22.5421 82.5807 22.6493 82.5807 22.8405V23.8095C82.5807 24.0241 82.4724 24.1325 82.258 24.1325C82.1497 24.1325 82.0458 24.1269 81.9453 24.1146C81.8426 24.1023 81.7332 24.0967 81.6148 24.0967C80.6589 24.0967 79.8415 24.3839 79.1615 24.9573V31.3022C79.1615 31.5414 79.0409 31.6609 78.803 31.6609H77.7467L77.7489 31.6565L77.75 31.6553ZM84.2166 31.6553C83.9777 31.6553 83.8582 31.5369 83.8582 31.2966V18.751C83.8582 18.5118 83.9765 18.3922 84.2166 18.3922H85.273C85.512 18.3922 85.6314 18.5129 85.6314 18.751V26.5309L89.3209 22.8014C89.4181 22.7052 89.5096 22.6426 89.5978 22.6125C89.6883 22.5823 89.8044 22.5689 89.9474 22.5689H91.0942C91.2717 22.5689 91.3622 22.6415 91.3622 22.7835C91.3622 22.8796 91.3153 22.9746 91.2204 23.0707L87.3522 26.8886L91.5252 31.1558C91.6224 31.2519 91.6681 31.3469 91.6681 31.443C91.6681 31.5849 91.5777 31.6576 91.399 31.6576H90.1461C89.8714 31.6576 89.6637 31.5738 89.5197 31.4072L85.6337 27.3569V31.3011C85.6337 31.5402 85.5131 31.6598 85.2752 31.6598H84.2189V31.6576L84.2166 31.6553ZM96.5089 31.9247C95.0394 31.9247 93.9294 31.519 93.1779 30.7053C92.4264 29.8928 92.0489 28.6914 92.0489 27.1021C92.0489 25.5128 92.4264 24.4041 93.1779 23.5613C93.9305 22.7186 94.9802 22.2973 96.3302 22.2973C97.4659 22.2973 98.338 22.6158 98.9455 23.2562C99.5552 23.8966 99.86 24.8008 99.86 25.9721C99.86 26.3555 99.8287 26.7422 99.7696 27.1378C99.745 27.2798 99.707 27.377 99.6534 27.4251C99.5998 27.4731 99.5127 27.4977 99.3932 27.4977H93.7686C93.7932 28.5248 94.0455 29.2848 94.529 29.7744C95.0126 30.2639 95.7618 30.5086 96.7758 30.5086C97.1353 30.5086 97.477 30.4841 97.8065 30.436C98.1348 30.3879 98.5502 30.2873 99.0504 30.1309C99.1353 30.1063 99.2056 30.0873 99.2659 30.0683C99.3251 30.0504 99.3798 30.0426 99.4267 30.0426C99.5808 30.0426 99.6579 30.151 99.6579 30.3656V30.8674C99.6579 31.0216 99.6333 31.1345 99.5864 31.1982C99.5384 31.2642 99.4357 31.3323 99.2816 31.405C98.922 31.5592 98.4966 31.6855 98.0008 31.7816C97.505 31.8778 97.0058 31.9236 96.5055 31.9236H96.5078L96.5089 31.9247ZM98.2286 26.313C98.2408 26.2169 98.2464 26.0626 98.2464 25.8481C98.2464 25.1194 98.0767 24.5706 97.7361 24.1995C97.3955 23.8285 96.8964 23.6441 96.2409 23.6441C95.4894 23.6441 94.9042 23.8687 94.4855 24.3158C94.0667 24.7628 93.8289 25.4312 93.7708 26.3141H98.2297L98.2286 26.313ZM104.931 31.7828C103.236 31.7828 102.388 30.9345 102.388 29.2368V23.9671H101.1C100.862 23.9671 100.74 23.8463 100.74 23.6083V23.1612C100.74 23.0428 100.767 22.9522 100.82 22.8919C100.874 22.8315 100.979 22.7891 101.133 22.7656L102.44 22.6046L102.672 20.3816C102.696 20.1425 102.82 20.0229 103.048 20.0229H103.8C104.039 20.0229 104.159 20.1436 104.159 20.3816V22.5678H106.489C106.726 22.5678 106.848 22.6885 106.848 22.9265V23.6083C106.848 23.8475 106.728 23.9671 106.489 23.9671H104.159V29.1462C104.159 29.5877 104.259 29.8984 104.455 30.0795C104.651 30.2583 104.99 30.3488 105.467 30.3488C105.695 30.3488 105.974 30.3186 106.309 30.2583C106.486 30.2225 106.607 30.2046 106.668 30.2046C106.764 30.2046 106.829 30.2304 106.865 30.2851C106.899 30.3388 106.918 30.4259 106.918 30.5455V31.0295C106.918 31.1837 106.894 31.3022 106.846 31.3782C106.798 31.4564 106.704 31.519 106.559 31.5671C106.094 31.709 105.551 31.7816 104.93 31.7816H104.932L104.931 31.7828ZM108.673 35.3492C108.435 35.3492 108.313 35.2285 108.313 34.9904V22.9276C108.313 22.6885 108.432 22.5689 108.673 22.5689H109.46C109.698 22.5689 109.836 22.6896 109.871 22.9276L109.962 23.501C110.869 22.7008 111.879 22.2995 112.989 22.2995C114.099 22.2995 115.059 22.7209 115.728 23.5636C116.398 24.4063 116.731 25.5496 116.731 26.9959C116.731 28.4421 116.377 29.6425 115.674 30.5265C114.969 31.4117 114.033 31.8521 112.862 31.8521C111.787 31.8521 110.861 31.4989 110.086 30.7948V34.9893C110.086 35.2285 109.966 35.3481 109.727 35.3481H108.671H108.673V35.3492ZM112.452 30.4204C114.099 30.4204 114.922 29.3094 114.922 27.0864C114.922 25.9509 114.722 25.1082 114.323 24.5583C113.921 24.0084 113.31 23.7335 112.486 23.7335C111.662 23.7335 110.839 24.0084 110.088 24.5583V29.5598C110.863 30.1331 111.65 30.4204 112.45 30.4204H112.452ZM120.474 31.7459C119.842 31.7459 119.358 31.5637 119.023 31.1982C118.688 30.8328 118.523 30.3119 118.523 29.6291V18.7499C118.523 18.5107 118.64 18.3911 118.881 18.3911H119.938C120.176 18.3911 120.297 18.5118 120.297 18.7499V29.5229C120.297 29.7978 120.353 29.9979 120.467 30.1231C120.581 30.2493 120.767 30.3119 121.032 30.3119C121.105 30.3119 121.178 30.3064 121.256 30.2941C121.335 30.2818 121.404 30.2762 121.463 30.2762C121.581 30.2762 121.664 30.3063 121.705 30.3667C121.748 30.4271 121.768 30.5176 121.768 30.6361V31.2094C121.768 31.3301 121.741 31.4218 121.687 31.4877C121.633 31.5536 121.54 31.6039 121.411 31.6397C121.112 31.7123 120.801 31.7481 120.478 31.7481L120.474 31.7459ZM125.665 31.8878C124.818 31.8878 124.14 31.6453 123.633 31.1614C123.126 30.6774 122.872 30.0303 122.872 29.2155C122.872 28.3426 123.182 27.6464 123.804 27.1266C124.426 26.6069 125.261 26.3465 126.312 26.3465C126.979 26.3465 127.732 26.4482 128.568 26.6516V25.4681C128.568 24.8221 128.422 24.3683 128.13 24.1056C127.837 23.843 127.338 23.71 126.635 23.71C125.811 23.71 125.006 23.8307 124.218 24.0688C123.943 24.1526 123.771 24.1951 123.7 24.1951C123.557 24.1951 123.484 24.0866 123.484 23.8721V23.3881C123.484 23.2339 123.509 23.1188 123.557 23.0472C123.605 22.9746 123.7 22.9109 123.844 22.8505C124.215 22.684 124.681 22.5499 125.25 22.4471C125.816 22.3442 126.38 22.2951 126.94 22.2951C128.075 22.2951 128.91 22.532 129.448 23.0036C129.985 23.4753 130.253 24.1951 130.253 25.1641V31.2943C130.253 31.5335 130.134 31.6531 129.895 31.6531H129.126C128.898 31.6531 128.766 31.5391 128.73 31.3122L128.64 30.7199C128.211 31.0909 127.736 31.3782 127.217 31.5805C126.698 31.7828 126.181 31.8856 125.668 31.8856L125.665 31.8878ZM126.095 30.5444C126.489 30.5444 126.9 30.4662 127.331 30.3119C127.76 30.1577 128.173 29.9286 128.567 29.6302V27.8028C127.922 27.6486 127.29 27.5704 126.67 27.5704C125.32 27.5704 124.646 28.0901 124.646 29.1295C124.646 29.5832 124.772 29.9342 125.022 30.1789C125.272 30.4237 125.632 30.5466 126.096 30.5466L126.095 30.5444ZM136.394 31.8521C134.985 31.8521 133.907 31.4486 133.161 30.6428C132.415 29.8369 132.042 28.669 132.042 27.1378C132.042 25.6066 132.428 24.4454 133.197 23.615C133.966 22.7846 135.057 22.3688 136.465 22.3688C137.111 22.3688 137.743 22.4828 138.363 22.7097C138.493 22.7578 138.588 22.8181 138.64 22.8885C138.694 22.9612 138.72 23.0796 138.72 23.2473V23.7312C138.72 23.9704 138.642 24.09 138.489 24.09C138.429 24.09 138.334 24.0721 138.202 24.0363C137.712 23.8944 137.217 23.8218 136.714 23.8218C135.713 23.8218 134.989 24.0766 134.548 24.584C134.106 25.0914 133.885 25.9017 133.885 27.0138V27.2462C133.885 28.3337 134.109 29.1317 134.556 29.6391C135.003 30.1465 135.711 30.4014 136.679 30.4014C137.18 30.4014 137.717 30.3175 138.291 30.151C138.422 30.1152 138.512 30.0974 138.559 30.0974C138.714 30.0974 138.791 30.2181 138.791 30.4561V30.9401C138.791 31.0943 138.767 31.2094 138.72 31.2809C138.672 31.3536 138.577 31.4195 138.433 31.4776C137.848 31.728 137.166 31.8543 136.39 31.8543L136.394 31.8521ZM144.21 31.9247C142.74 31.9247 141.63 31.519 140.879 30.7053C140.127 29.8928 139.751 28.6914 139.751 27.1021C139.751 25.5128 140.127 24.4041 140.879 23.5613C141.631 22.7186 142.681 22.2973 144.032 22.2973C145.167 22.2973 146.039 22.6158 146.647 23.2562C147.257 23.8966 147.561 24.8008 147.561 25.9721C147.561 26.3555 147.531 26.7422 147.47 27.1378C147.446 27.2798 147.408 27.377 147.354 27.4251C147.3 27.4731 147.213 27.4977 147.094 27.4977H141.469C141.494 28.5248 141.746 29.2848 142.23 29.7744C142.713 30.2639 143.463 30.5086 144.478 30.5086C144.836 30.5086 145.178 30.4841 145.507 30.436C145.835 30.3879 146.251 30.2873 146.751 30.1309C146.836 30.1063 146.906 30.0873 146.967 30.0683C147.026 30.0504 147.081 30.0426 147.127 30.0426C147.282 30.0426 147.359 30.151 147.359 30.3656V30.8674C147.359 31.0216 147.335 31.1345 147.287 31.1982C147.239 31.2642 147.136 31.3323 146.982 31.405C146.624 31.5592 146.197 31.6855 145.701 31.7816C145.206 31.8778 144.708 31.9236 144.206 31.9236H144.208L144.21 31.9247ZM145.929 26.313C145.942 26.2169 145.948 26.0626 145.948 25.8481C145.948 25.1194 145.777 24.5706 145.437 24.1995C145.096 23.8285 144.597 23.6441 143.942 23.6441C143.19 23.6441 142.605 23.8687 142.186 24.3158C141.767 24.7628 141.53 25.4312 141.471 26.3141H145.93L145.929 26.313Z" fill="white"/>
</svg>
